<svg width="35" height="35" viewBox="0 0 35 35" fill="none" xmlns="http://www.w3.org/2000/svg">
<path d="M17.5 0C27.1493 0 35 7.85067 35 17.5C35 27.1493 27.1493 34.9999 17.5 34.9999C7.85074 34.9999 7.24792e-05 27.1493 7.24792e-05 17.5C7.24792e-05 7.85067 7.85067 0 17.5 0ZM17.5 33.4782C26.3109 33.4782 33.4783 26.3108 33.4783 17.5C33.4783 8.6891 26.3109 1.52171 17.5 1.52171C8.68917 1.52171 1.52179 8.6891 1.52179 17.5C1.52179 26.3108 8.68917 33.4782 17.5 33.4782Z" fill="white"/>
<path d="M17.5001 16.7391C22.954 16.7391 27.3914 21.1765 27.3914 26.6305C27.3914 27.0505 27.0505 27.3914 26.6305 27.3914C26.2105 27.3914 25.8696 27.0504 25.8696 26.6304C25.8696 22.015 22.1155 18.2609 17.5001 18.2609C12.8846 18.2609 9.13052 22.015 9.13052 26.6304C9.13052 27.0504 8.78962 27.3913 8.36962 27.3913C7.94963 27.3913 7.60873 27.0504 7.60873 26.6304C7.60873 21.1765 12.0461 16.7391 17.5001 16.7391Z" fill="white"/>
<path d="M17.5 4.56522C20.437 4.56522 22.8261 6.95432 22.8261 9.89132C22.8261 12.8283 20.437 15.2174 17.5 15.2174C14.563 15.2174 12.1739 12.8283 12.1739 9.89132C12.1739 6.95439 14.563 4.56522 17.5 4.56522ZM17.5 13.6956C19.597 13.6956 21.3044 11.9883 21.3044 9.89132C21.3044 7.79439 19.597 6.087 17.5 6.087C15.4031 6.087 13.6957 7.79439 13.6957 9.89132C13.6957 11.9883 15.403 13.6956 17.5 13.6956Z" fill="white"/>
</svg>
