<svg id="color_line" enable-background="new 0 0 512 512" height="512" viewBox="0 0 512 512" width="512" xmlns="http://www.w3.org/2000/svg"><g><g><path d="m487.576 22.348-12.454 93.059-25.185-25.116-.069.069-38.054 39.369c44.812 61.397 31.367 147.497-30.03 192.309-42.508 31.025-98.986 35.095-145.503 10.484 5.578-4.109 10.85-8.618 15.775-13.492 5.757-5.731 10.969-11.985 15.568-18.681 10.537 3.925 21.69 5.94 32.934 5.95 52.714.023 95.465-42.692 95.488-95.405.023-52.714-42.692-95.465-95.405-95.488-16.011-.007-31.767 4.014-45.817 11.693-.83-.969-1.799-1.937-2.698-2.837-9.721-9.723-20.846-17.932-33.003-24.355 47.864-35.237 112.947-35.739 161.349-1.245l38.331-39.161-22.833-22.692z" fill="#89c5cd"/></g><g><path d="m254.547 130.698c-1.911 0-3.46-1.548-3.46-3.459 0-.889.342-1.744.955-2.388.335-.333.726-.605 1.155-.803 1.688-.894 3.782-.251 4.677 1.437.709 1.338.465 2.981-.601 4.056-.313.3-.673.548-1.066.733-.509.278-1.08.423-1.66.424z" fill="#323c6b"/></g><g><path d="m267.624 300.35c-.782 1.142-1.702 2.214-2.525 3.335 7.081 1.708 14.337 2.586 21.622 2.615 2.221 0 4.393-.187 6.573-.332-8.777-.673-17.416-2.564-25.67-5.618z" fill="#acc6cc"/></g><g><path d="m286.72 115.408c-12.461.039-24.794 2.507-36.311 7.265.567.547 1.162 1.038 1.716 1.591.899.899 1.868 1.868 2.698 2.837 11.854-6.409 24.913-10.28 38.345-11.368-2.144-.146-4.275-.325-6.448-.325z" fill="#acc6cc"/></g><g><path d="m219.122 103.369h-.069c-1.911-.019-3.444-1.583-3.425-3.494s1.583-3.444 3.494-3.425 3.444 1.583 3.425 3.494c-.019 1.884-1.541 3.406-3.425 3.425z" fill="#323c6b"/></g><g><path d="m28.229 129.75c-1.911 0-3.459-1.549-3.459-3.459 0-.749.243-1.477.692-2.076 17.197-22.862 40.19-40.715 66.601-51.712 1.771-.718 3.788.135 4.506 1.906.706 1.74-.106 3.726-1.828 4.474-25.279 10.525-47.288 27.611-63.751 49.491-.653.866-1.676 1.376-2.761 1.376z" fill="#323c6b"/></g><g><path d="m126.263 69.3c-1.911-.004-3.456-1.556-3.452-3.467.004-1.67 1.2-3.099 2.843-3.397 1.877-.337 3.759-.646 5.646-.927 1.883-.324 3.672.94 3.996 2.823s-.94 3.672-2.823 3.996c-.054.009-.108.017-.162.024-1.82.27-3.632.567-5.431.893-.204.036-.41.055-.617.055z" fill="#323c6b"/></g><g><path d="m254.824 127.101c-.83-.969-1.799-1.937-2.698-2.837-9.721-9.723-20.846-17.932-33.003-24.355h-.069c-67.222-35.547-150.533-9.869-186.08 57.354s-9.869 150.533 57.354 186.08c12.925 6.835 26.857 11.567 41.271 14.019v48.571h-43.175v44.004h43.174v39.784l44.419.069v-39.853h45.042v-44.004h-45.042v-48.294c14.055-2.166 27.687-6.508 40.406-12.869 6.975-3.474 13.622-7.573 19.857-12.246 5.578-4.109 10.85-8.618 15.775-13.492 5.757-5.731 10.969-11.985 15.568-18.681 37.302-53.494 31.959-125.819-12.799-173.25zm-22.694 150.071c-2.993 4.25-6.35 8.232-10.032 11.901-6.382 6.404-13.652 11.857-21.587 16.19-46.212 25.313-104.195 8.37-129.507-37.842s-8.37-104.195 37.842-129.507c37.186-20.368 83.353-13.752 113.321 16.241.341.329.664.675.969 1.038 32.146 33.113 35.936 84.507 8.994 121.979z" fill="#fe7058"/></g><g><path d="m176.017 405.933v-47.305c-4.359 1.107-8.718 2.007-13.146 2.698v58.029h45.042v30.582h13.146v-44.004zm78.807-278.832c-.83-.969-1.799-1.937-2.698-2.837-9.721-9.723-20.846-17.932-33.003-24.355h-.069c-53.43-28.154-118.964-18.255-161.695 24.424-2.56 2.56-4.982 5.189-7.196 7.888 42.923-38.097 104.957-45.621 155.744-18.889h.069c12.157 6.423 23.282 14.632 33.003 24.355.899.899 1.868 1.868 2.698 2.837 44.758 47.431 50.101 119.756 12.8 173.25-2.499 3.677-5.201 7.211-8.095 10.586 1.937-1.73 3.805-3.459 5.674-5.328 5.757-5.731 10.969-11.985 15.568-18.681 37.301-53.494 31.958-125.819-12.8-173.25z" fill="#ea6453"/></g><g><path d="m232.13 277.172c-2.993 4.25-6.35 8.232-10.032 11.901-6.382 6.404-13.652 11.857-21.587 16.19-44.698-47.43-50.039-119.694-12.8-173.181 12.948 4.775 24.705 12.306 34.456 22.071.341.329.664.675.969 1.038-26.946 37.471-23.156 88.868 8.994 121.981z" fill="#89c5cd"/></g><g><path d="m200.51 308.722c-.951-.002-1.859-.394-2.512-1.086-45.836-48.616-51.321-122.703-13.146-177.539.9-1.29 2.558-1.81 4.034-1.266 13.427 4.932 25.615 12.739 35.709 22.874.433.421.844.864 1.232 1.328.952 1.208.991 2.9.097 4.151-25.96 36.114-22.304 85.641 8.676 117.552 1.15 1.191 1.295 3.03.346 4.387-3.107 4.416-6.594 8.554-10.42 12.364-6.615 6.636-14.148 12.288-22.369 16.785-.503.286-1.069.44-1.647.45zm-11.492-172.419c-34.121 51.185-29.104 119.008 12.177 164.615 6.736-3.952 12.938-8.751 18.453-14.281 2.872-2.874 5.54-5.944 7.984-9.188-30.815-33.671-34.535-84.075-8.995-121.904-8.525-8.283-18.587-14.819-29.619-19.242z" fill="#323c6b"/></g><g><path d="m466.806 25.628-9.687 72.406 18.003 17.374 12.454-93.06z" fill="#6eaaad"/></g><g><path d="m451.031 88.216c-6.006-5.204-15.031-4.812-20.563.893l-37.964 39.175c44.723 61.405 31.199 147.44-30.206 192.163-17.722 12.908-38.274 21.392-59.941 24.745l20.113 1.384c75.036-12.113 126.046-82.762 113.932-157.798-3.445-21.34-11.869-41.569-24.588-59.048z" fill="#6eaaad"/></g><g><path d="m300.551 351.965c-22.977.014-45.605-5.616-65.896-16.398-1.686-.899-2.324-2.994-1.425-4.68.243-.457.586-.853 1.003-1.159 5.44-4.004 10.583-8.398 15.388-13.146 5.599-5.574 10.667-11.656 15.139-18.169.896-1.313 2.571-1.847 4.061-1.294 10.15 3.788 20.896 5.731 31.73 5.736 50.803.029 92.01-41.132 92.039-91.935s-41.132-92.01-91.935-92.039c-15.441-.009-30.636 3.87-44.184 11.278-1.435.776-3.216.444-4.276-.796-.768-.899-1.667-1.799-2.512-2.629-9.478-9.482-20.326-17.489-32.18-23.753-1.689-.894-2.333-2.987-1.44-4.676.244-.461.59-.862 1.011-1.171 48.192-35.479 113.53-36.669 162.982-2.968l33.903-34.595-20.425-20.314c-1.354-1.348-1.358-3.539-.01-4.892.516-.518 1.183-.859 1.906-.975l91.6-14.461c1.888-.296 3.657.995 3.953 2.882.051.328.055.663.011.992l-12.454 93.059c-.175 1.303-1.073 2.394-2.318 2.816-1.247.422-2.625.101-3.556-.83l-22.694-22.639-33.674 34.864c44.567 63.989 28.822 151.991-35.167 196.558-23.646 16.471-51.765 25.311-80.58 25.334zm-57.801-20.064c66.925 31.883 147.025 3.476 178.908-63.449 21.172-44.441 16.318-96.906-12.646-136.709-.993-1.361-.862-3.24.311-4.449l38.054-39.369c.656-.695 1.57-1.089 2.525-1.086.922-.011 1.811.339 2.477.976l20.238 20.182 10.911-81.505-80.28 12.669 17.989 17.885c1.319 1.345 1.319 3.498 0 4.843l-38.331 39.161c-1.19 1.217-3.089 1.387-4.477.401-45.561-32.465-106.489-33.232-152.853-1.923 10.578 6.133 20.311 13.618 28.956 22.265l.996.996c48.636-24.841 108.201-5.55 133.042 43.086s5.55 108.201-43.086 133.042c-13.928 7.113-29.344 10.822-44.983 10.821-10.753-.001-21.433-1.78-31.606-5.265-4.342 6.049-9.173 11.73-14.447 16.986-3.713 3.693-7.619 7.187-11.7 10.468v-.026z" fill="#323c6b"/></g><g><path d="m447.585 272.723c-.441.001-.878-.084-1.287-.249-1.773-.711-2.634-2.724-1.923-4.497l.754-1.854c.512-1.252 1.031-2.505 1.495-3.785.554-1.829 2.485-2.862 4.314-2.308s2.862 2.485 2.308 4.314c-.032.106-.069.21-.111.312-.491 1.384-1.052 2.768-1.612 4.11l-.727 1.785c-.526 1.312-1.798 2.172-3.211 2.172z" fill="#323c6b"/></g><g><path d="m389.535 345.136c-1.911.001-3.46-1.548-3.461-3.458 0-1.144.565-2.214 1.509-2.859 20.086-13.785 36.69-32.052 48.502-53.359.868-1.702 2.951-2.379 4.653-1.511s2.379 2.951 1.511 4.653c-.035.068-.071.134-.11.199-12.331 22.252-29.67 41.33-50.646 55.725-.576.398-1.259.61-1.958.61z" fill="#323c6b"/></g><g><path d="m176.017 493.249c-.002 0-.003 0-.005 0l-44.419-.069c-1.909-.003-3.454-1.551-3.454-3.459v-36.324h-39.715c-1.911 0-3.459-1.549-3.459-3.459v-44.005c0-1.91 1.549-3.459 3.459-3.459h39.714v-42.222c-13.769-2.635-27.019-7.289-39.428-13.851-68.801-36.381-95.177-121.954-58.795-190.755 36.322-68.688 121.675-95.088 190.416-58.974.142.051.279.11.407.178 12.476 6.591 23.859 14.991 33.834 24.968.901.901 1.92 1.92 2.824 2.967 22.157 23.508 35.67 54.194 38.051 86.412 2.382 32.245-6.491 64.609-24.984 91.132-4.697 6.838-10.073 13.289-15.965 19.154-5.033 4.98-10.469 9.63-16.164 13.825-6.363 4.77-13.224 9-20.367 12.558-12.167 6.086-25.103 10.355-38.489 12.708v41.899h41.583c1.911 0 3.459 1.549 3.459 3.459v44.005c0 1.91-1.549 3.459-3.459 3.459h-41.583v36.394c0 .918-.365 1.799-1.015 2.448-.65.648-1.529 1.011-2.446 1.011zm-40.96-6.982 37.5.059v-36.388c0-1.91 1.549-3.46 3.459-3.46h41.584v-37.085h-41.583c-1.911 0-3.459-1.55-3.459-3.46v-48.294c0-1.707 1.245-3.159 2.933-3.419 13.719-2.114 26.971-6.335 39.386-12.544 6.775-3.374 13.277-7.384 19.33-11.921 5.449-4.014 10.628-8.443 15.416-13.183 5.582-5.557 10.681-11.676 15.15-18.181 36.185-51.893 30.937-122.924-12.465-168.917-.038-.041-.075-.082-.111-.124-.744-.868-1.646-1.77-2.518-2.642-9.397-9.398-20.108-17.326-31.841-23.566-.14-.051-.275-.109-.402-.177-65.428-34.595-146.806-9.514-181.405 55.915-16.76 31.695-20.174 68.02-9.614 102.282s33.832 62.362 65.527 79.122c12.622 6.675 26.158 11.273 40.233 13.668 1.663.282 2.879 1.724 2.879 3.41v48.57c0 1.91-1.549 3.46-3.459 3.46h-39.714v37.085h39.714c1.911 0 3.459 1.55 3.459 3.46v36.33zm19.76-165.769c-9.313 0-18.68-1.329-27.868-4.014-25.348-7.407-46.294-24.241-58.98-47.402s-15.594-49.875-8.187-75.223 24.241-46.294 47.401-58.98c18.907-10.357 40.181-14.213 61.52-11.156 21.339 3.058 40.673 12.735 55.911 27.985.351.338.729.739 1.086 1.159 33.276 34.361 37.172 87.46 9.25 126.31-3.101 4.4-6.603 8.554-10.412 12.347-6.611 6.635-14.141 12.282-22.37 16.775-14.763 8.086-30.972 12.199-47.351 12.199zm-.345-190.749c-15.065 0-30.208 3.663-43.964 11.198-21.54 11.798-37.196 31.278-44.084 54.852s-4.184 48.419 7.614 69.958c11.798 21.54 31.278 37.196 54.852 44.085 23.575 6.888 48.42 4.185 69.959-7.614 7.65-4.178 14.647-9.425 20.798-15.599 3.538-3.522 6.783-7.372 9.655-11.45.007-.009.013-.019.02-.027 25.998-36.159 22.353-85.596-8.668-117.551-.058-.06-.113-.121-.167-.185-.228-.27-.47-.53-.721-.772-17.638-17.651-41.366-26.895-65.294-26.895z" fill="#323c6b"/></g><g><path d="m58.811 293.203c-1.273.07-2.503-.47-3.314-1.453-16.578-22.777-21.11-40.227-21.117-70.345 0-2.484 2.014-4.497 4.497-4.497s4.497 2.014 4.497 4.497c0 27.856 4.359 39.147 18.75 64.263 1.462 1.902 1.349 4.58-.27 6.352-.829.762-1.916 1.185-3.043 1.183z" fill="#fff"/></g><g><path d="m40.856 204.71c-2.488.002-4.506-2.012-4.508-4.5 0-.273.024-.545.073-.814.498-2.712 1.107-5.411 1.799-8.088.617-2.407 3.069-3.859 5.476-3.242s3.859 3.069 3.242 5.476c-.637 2.477-1.204 4.968-1.661 7.479-.39 2.136-2.25 3.688-4.421 3.689z" fill="#fff"/></g></g></svg>