<svg width="86" height="147" viewBox="0 0 86 147" fill="none" xmlns="http://www.w3.org/2000/svg">
<path fill-rule="evenodd" clip-rule="evenodd" d="M42.9998 14.9044C46.2776 14.9044 49.4427 15.4113 52.4206 16.3504C52.8256 15.2447 53.0332 14.0762 53.0332 12.8986C53.0332 7.35732 48.5411 2.86523 42.9998 2.86523C37.4585 2.86523 32.9664 7.35732 32.9664 12.8986C32.9664 14.0762 33.1737 15.2447 33.5787 16.3504C36.5569 15.4113 39.722 14.9044 42.9998 14.9044Z" fill="#88DF8E"/>
<path fill-rule="evenodd" clip-rule="evenodd" d="M52.4205 16.3517C49.4426 15.4126 46.2775 14.9058 42.9997 14.9058C39.7219 14.9058 36.5568 15.4126 33.5786 16.3517C20.7993 20.382 11.4659 32.3736 11.4659 46.4392H74.5332C74.5332 32.3736 65.1998 20.3817 52.4205 16.3517V16.3517Z" fill="#FF5A58"/>
<path fill-rule="evenodd" clip-rule="evenodd" d="M74.5331 46.4385H11.4659C9.88925 46.4385 8.59924 47.7285 8.59924 49.3052V57.9055C8.59924 59.4821 9.88925 60.7719 11.4659 60.7719H22.9326H63.0667H74.5331C76.1098 60.7719 77.3998 59.4819 77.3998 57.9052V49.3052C77.3998 47.7285 76.1098 46.4385 74.5331 46.4385Z" fill="#88DF8E"/>
<path fill-rule="evenodd" clip-rule="evenodd" d="M11.4659 72.2379C17.7987 72.2379 22.9324 67.1043 22.9324 60.7715H11.4659V72.2379Z" fill="#C68A65"/>
<path fill-rule="evenodd" clip-rule="evenodd" d="M63.0663 60.771C63.0663 67.1038 68.1999 72.2374 74.5327 72.2374V60.771H63.0663Z" fill="#C68A65"/>
<path fill-rule="evenodd" clip-rule="evenodd" d="M74.5332 72.2379C68.2005 72.2379 63.0668 67.1043 63.0668 60.7715H22.9327C22.9327 67.1043 17.7988 72.2379 11.4663 72.2379C11.4663 89.5813 25.6567 103.771 43.0001 103.771C60.3429 103.771 74.5332 89.5813 74.5332 72.2379Z" fill="#FFDCD5"/>
<path fill-rule="evenodd" clip-rule="evenodd" d="M62.2217 97.1923C56.8914 101.313 50.2186 103.772 42.9997 103.772C35.7734 103.772 29.0943 101.308 23.7615 97.1797L23.5766 97.3517C20.2016 99.2328 17.1225 101.587 14.4296 104.322C22.0366 111.106 32.0536 115.238 42.9997 115.238C53.9453 115.238 63.9623 111.106 71.5693 104.322C68.9185 101.63 65.8933 99.3068 62.5803 97.4405L62.2217 97.1923Z" fill="#FF9C9B"/>
<path fill-rule="evenodd" clip-rule="evenodd" d="M20.0669 143.906H65.9326V142.808V132.439H20.0669V137.624V143.906Z" fill="#FF9C9B"/>
<path fill-rule="evenodd" clip-rule="evenodd" d="M20.0668 132.439H65.9323V137.623V143.906H83.1329V132.438C83.1329 121.516 78.7108 111.577 71.569 104.323C63.9623 111.106 53.9453 115.239 42.9995 115.239C32.0535 115.239 22.0365 111.106 14.4295 104.322C7.28804 111.577 2.86621 121.516 2.86621 132.438V143.906H20.0668V137.623V132.439Z" fill="#FF5A58"/>
<path d="M31.5335 74.5332C33.1167 74.5332 34.4002 73.2497 34.4002 71.6665C34.4002 70.0832 33.1167 68.7998 31.5335 68.7998H31.5312C29.9479 68.7998 28.6656 70.0832 28.6656 71.6665C28.6656 73.2497 29.9502 74.5332 31.5335 74.5332V74.5332Z" fill="black"/>
<path d="M54.4675 74.5332C56.0508 74.5332 57.3342 73.2497 57.3342 71.6665C57.3342 70.0832 56.0508 68.7998 54.4675 68.7998H54.4655C52.8822 68.7998 51.5997 70.0832 51.5997 71.6665C51.5997 73.2497 52.8842 74.5332 54.4675 74.5332Z" fill="black"/>
<path d="M35.51 86.2892C37.7838 87.6022 40.3736 88.2959 42.9992 88.2959C45.6248 88.2959 48.2145 87.6022 50.4884 86.2892C51.8595 85.4978 52.3293 83.7445 51.5376 82.3734C50.7461 81.0019 48.9928 80.5324 47.6217 81.3242C46.2182 82.1346 44.6197 82.5628 42.9992 82.5628C41.3786 82.5628 39.7802 82.1346 38.3766 81.3242C37.0055 80.5329 35.2523 81.0022 34.4605 82.3734C33.6693 83.7442 34.1388 85.4975 35.51 86.2892Z" fill="black"/>
<path d="M67.0261 96.8317C73.4219 90.5815 77.3994 81.8666 77.3994 72.2389V62.8634C79.1103 61.8701 80.2661 60.0223 80.2661 57.9058V49.3058C80.2661 47.1607 79.0802 45.2899 77.3315 44.3069C76.5002 30.782 67.8199 19.3463 55.7988 14.5102C55.8656 13.9776 55.8994 13.4404 55.8994 12.9C55.8994 5.78694 50.1125 0 42.9994 0C35.8864 0 30.0994 5.78694 30.0994 12.9C30.0994 13.4404 30.133 13.9779 30.2 14.5102C18.1793 19.3466 9.4987 30.782 8.66765 44.3069C6.9187 45.2899 5.73305 47.161 5.73305 49.3058V57.9058C5.73305 60.0223 6.88889 61.8701 8.59971 62.8631V72.2386C8.59971 81.866 12.5766 90.5804 18.9722 96.8306C7.1853 104.814 0 118.135 0 132.438V143.907C0 145.49 1.28341 146.773 2.86667 146.773H83.1333C84.7166 146.773 86 145.49 86 143.907V132.438C85.9994 118.151 78.8095 104.816 67.0261 96.8317ZM71.6661 68.8857C69.2111 68.0266 67.2787 66.0942 66.4195 63.6391H71.6661V68.8857ZM42.9994 5.73305C46.9147 5.73305 50.105 8.88982 50.1632 12.7916C47.8515 12.3 45.4553 12.0391 42.9994 12.0391C40.5433 12.0391 38.147 12.3 35.8353 12.7916C35.8938 8.88982 39.0841 5.73305 42.9994 5.73305V5.73305ZM42.9994 17.7725C57.839 17.7725 70.0805 29.1067 71.5233 43.5725H55.8986C54.3153 43.5725 53.0319 44.8559 53.0319 46.4391C53.0319 48.0224 54.3153 49.3058 55.8986 49.3058H74.5328V57.9058H11.4687C11.4678 57.9058 11.467 57.9058 11.4658 57.9058V49.3058H30.0983C31.6815 49.3058 32.9649 48.0224 32.9649 46.4391C32.9649 44.8559 31.6815 43.5725 30.0983 43.5725H14.4755C15.9183 29.1064 28.1598 17.7725 42.9994 17.7725V17.7725ZM14.3325 63.6391H19.5788C18.7196 66.0939 16.7872 68.0263 14.3325 68.8857V63.6391ZM14.448 74.7959C20.036 73.6269 24.3867 69.2438 25.5116 63.6391H60.4872C61.6121 69.2438 65.9631 73.6272 71.5509 74.7959C70.2528 89.4093 57.9445 100.906 42.9994 100.906C28.0544 100.906 15.746 89.4093 14.448 74.7959V74.7959ZM42.9994 106.639C50.1801 106.639 56.8532 104.426 62.3749 100.648C64.099 101.705 65.7201 102.89 67.2282 104.186C60.2659 109.48 51.7525 112.373 42.9994 112.373C34.2498 112.373 25.7303 109.478 18.7681 104.184C20.2765 102.888 21.8999 101.706 23.6245 100.649C29.1463 104.426 35.819 106.639 42.9994 106.639ZM63.0655 141.04H22.9333V135.306H63.0655V141.04ZM80.2661 141.04H68.7989V132.44C68.7989 130.856 67.5154 129.573 65.9322 129.573H20.0667C18.4834 129.573 17.2 130.856 17.2 132.44V141.04H5.73276V132.438C5.73276 123.462 9.00363 114.931 14.6897 108.277C22.7559 114.627 32.7382 118.106 42.9994 118.106C53.2647 118.106 63.2401 114.629 71.3066 108.281C76.9929 114.938 80.2661 123.472 80.2661 132.438V141.04Z" fill="black"/>
<path d="M42.9995 49.3051C44.5828 49.3051 45.8662 48.0217 45.8662 46.4385C45.8662 44.8552 44.5828 43.5718 42.9995 43.5718H42.9975C41.4142 43.5718 40.132 44.8552 40.132 46.4385C40.132 48.0217 41.4162 49.3051 42.9995 49.3051Z" fill="black"/>
</svg>
