<svg width="86" height="147" viewBox="0 0 66 110" fill="none" xmlns="http://www.w3.org/2000/svg">
<path fill-rule="evenodd" clip-rule="evenodd" d="M9.36755 30.5072H56.6334V25.7812C56.6334 8.48611 40.735 2.14844 33.0006 2.14844C25.2662 2.14844 9.36777 8.48611 9.36777 25.7812V30.5072H9.36755Z" fill="#99EBFA"/>
<path fill-rule="evenodd" clip-rule="evenodd" d="M56.6334 30.5073H9.36755C8.18591 30.5073 7.21912 31.4741 7.21912 32.6558V43.3982C7.21912 44.5798 8.18613 45.5464 9.36755 45.5464H56.6334C57.8148 45.5464 58.7818 44.5794 58.7818 43.398V32.6555C58.7816 31.4743 57.815 30.5073 56.6334 30.5073Z" fill="#60A4FF"/>
<path fill-rule="evenodd" clip-rule="evenodd" d="M9.36755 54.1399C14.1137 54.1399 17.9611 50.2925 17.9611 45.5464H9.36755V54.1399Z" fill="white"/>
<path fill-rule="evenodd" clip-rule="evenodd" d="M48.0393 45.5464C48.0393 50.2925 51.8867 54.1399 56.6328 54.1399V45.5464H48.0393Z" fill="white"/>
<path fill-rule="evenodd" clip-rule="evenodd" d="M56.6334 54.1399C51.8873 54.1399 48.0398 50.2925 48.0398 45.5464H17.9611C17.9611 50.2925 14.1137 54.1399 9.36755 54.1399C9.36755 67.138 20.0023 77.7727 33.0006 77.7727C45.9984 77.7727 56.6334 67.138 56.6334 54.1399Z" fill="#F3C9A6"/>
<path fill-rule="evenodd" clip-rule="evenodd" d="M35.1477 107.852V90.5927C34.4413 90.6397 33.725 90.6638 33.0004 90.6638C22.0621 90.6638 13.0331 85.1791 11.6888 78.085C6.278 83.5308 2.92236 91.0207 2.92236 99.2569V107.852H35.1477H50.1872H63.0782V99.2569C63.0782 91.0207 59.7228 83.5306 54.3117 78.085C53.8311 80.6214 52.3683 82.9518 50.1872 84.8998C46.6717 88.0391 41.2901 90.1838 35.1477 90.5929V107.852Z" fill="#FFC144"/>
<path fill-rule="evenodd" clip-rule="evenodd" d="M56.6332 54.1396C56.6332 61.7342 53.0023 68.5222 47.3908 72.8532L47.6748 73.0276C51.6241 75.2521 55.0279 78.3424 57.624 82.0365C68.4994 71.1613 56.6332 62.5327 56.6332 54.1396Z" fill="white"/>
<path fill-rule="evenodd" clip-rule="evenodd" d="M9.3676 54.1401C9.3676 61.7346 12.9982 68.5226 18.6098 72.8537L18.3257 73.0281C14.3765 75.2526 10.9727 78.3429 8.37653 82.0369C-2.49887 71.1618 9.3676 62.5332 9.3676 54.1401Z" fill="white"/>
<path fill-rule="evenodd" clip-rule="evenodd" d="M14.5491 68.8638C12.5639 71.0966 11.5161 73.6483 11.5161 76.2482C11.5161 76.8703 11.5748 77.4831 11.6888 78.0844C13.0331 85.1786 22.0621 90.6633 33.0005 90.6633C33.7254 90.6633 34.4417 90.6392 35.1478 90.5922C41.2904 90.1831 46.6718 88.0383 50.1873 84.8991C52.3686 82.9513 53.8313 80.6207 54.3119 78.0842C54.4258 77.4829 54.4846 76.8701 54.4846 76.2482C54.4846 73.6483 53.4366 71.0966 51.4517 68.8638C47.1116 74.2849 40.4433 77.7723 33.0005 77.7723C25.5572 77.7723 18.8891 74.2851 14.5491 68.8638Z" fill="#99EBFA"/>
<path d="M25.3156 60.8008C28.8752 60.8008 31.7609 57.9151 31.7609 54.3555C31.7609 50.7958 28.8752 47.9102 25.3156 47.9102C21.7559 47.9102 18.8702 50.7958 18.8702 54.3555C18.8702 57.9151 21.7559 60.8008 25.3156 60.8008Z" fill="#CFF5FD"/>
<path d="M41.7219 60.6894C45.2352 60.1198 47.6217 56.81 47.0522 53.2966C46.4826 49.7832 43.1727 47.3968 39.6594 47.9663C36.146 48.5359 33.7596 51.8457 34.3291 55.3591C34.8986 58.8725 38.2085 61.2589 41.7219 60.6894Z" fill="#CFF5FD"/>
<path d="M27.3871 68.9675C29.0913 69.9515 31.0322 70.4715 32.9999 70.4715C34.9677 70.4715 36.9086 69.9513 38.6127 68.9675C39.6403 68.3741 39.9922 67.0604 39.3991 66.0326C38.8059 65.0047 37.4917 64.653 36.4641 65.2462C35.4122 65.8536 34.2145 66.1746 32.9997 66.1746C31.785 66.1746 30.5872 65.8536 29.5354 65.2462C28.508 64.6533 27.194 65.005 26.6004 66.0326C26.0076 67.0604 26.3598 68.3741 27.3871 68.9675Z" fill="black"/>
<path d="M60.3542 82.2558C67.12 74.4383 63.866 67.4147 61.2252 61.716C59.9683 59.004 58.7813 56.4425 58.7813 54.1396V47.1131C60.0635 46.3687 60.9298 44.9838 60.9298 43.3976V32.6555C60.9298 31.0693 60.0635 29.6844 58.7813 28.94V25.7812C58.7813 15.3591 53.4702 9.14479 49.015 5.76703C43.4003 1.51035 36.8787 0 33.0002 0C29.1216 0 22.6001 1.51035 16.9854 5.76724C12.5302 9.145 7.21903 15.3593 7.21903 25.7812V28.94C5.93685 29.6844 5.0706 31.0693 5.0706 32.6555V43.3978C5.0706 44.984 5.93685 46.3689 7.21903 47.1131V54.1396C7.21903 56.4425 6.03202 59.004 4.77519 61.716C2.13413 67.4151 -1.11924 74.4383 5.64638 82.2558C2.47294 87.3214 0.773743 93.1694 0.773743 99.2564V107.851C0.773743 109.038 1.73559 110 2.92217 110H63.0782C64.2648 110 65.2266 109.038 65.2266 107.851V99.2564C65.2266 93.1696 63.5274 87.3214 60.3542 82.2558ZM15.4477 47.6947C14.8038 49.5344 13.3556 50.9827 11.5159 51.6265V47.6947H15.4477ZM54.4845 51.6268C52.6448 50.9829 51.1965 49.5346 50.5524 47.6947H54.4845V51.6268ZM44.982 54.3553C44.982 56.7245 43.0544 58.6521 40.6851 58.6521C38.3158 58.6521 36.3883 56.7245 36.3883 54.3553C36.3883 51.986 38.3158 50.0584 40.6851 50.0584C43.0544 50.0584 44.982 51.986 44.982 54.3553ZM33.0002 50.5154C32.4517 49.422 31.6778 48.461 30.7383 47.6947H35.2618C34.3225 48.461 33.5487 49.4222 33.0002 50.5154ZM29.6123 54.3553C29.6123 56.7245 27.6847 58.6521 25.3155 58.6521C22.9462 58.6521 21.0186 56.7245 21.0186 54.3553C21.0186 51.986 22.9462 50.0584 25.3155 50.0584C27.6847 50.0584 29.6123 51.986 29.6123 54.3553ZM16.7845 53.3341C16.7445 53.6693 16.7217 54.0096 16.7217 54.3553C16.7217 59.0938 20.5769 62.949 25.3155 62.949C28.6743 62.949 31.5876 61.0109 33.0002 58.1949C34.413 61.0109 37.326 62.949 40.6851 62.949C45.4237 62.949 49.2788 59.0938 49.2788 54.3553C49.2788 54.0096 49.2558 53.6693 49.2161 53.3343C50.628 54.6788 52.408 55.64 54.3983 56.0564C53.4255 67.0084 44.201 75.6243 33.0004 75.6243C21.7998 75.6243 12.5753 67.0082 11.6025 56.0564C13.5926 55.6398 15.3725 54.6786 16.7845 53.3341ZM13.6796 76.6489C13.9159 77.0354 14.1681 77.4156 14.4393 77.7873C14.8599 78.3637 15.5135 78.6695 16.1765 78.6695C16.6158 78.6695 17.059 78.5352 17.4413 78.2563C18.3997 77.5568 18.6096 76.2127 17.9103 75.2543C17.8009 75.1046 17.6969 74.9529 17.5955 74.8001C21.8962 78.015 27.2299 79.9207 33.0004 79.9207C38.7706 79.9207 44.1041 78.015 48.4048 74.8001C48.3034 74.9527 48.1995 75.1044 48.0901 75.2541C47.3906 76.2125 47.6005 77.5566 48.5589 78.2561C48.9409 78.535 49.3843 78.6695 49.8237 78.6695C50.4865 78.6695 51.1402 78.3637 51.5607 77.7875C51.832 77.4158 52.0842 77.0356 52.3206 76.6489C52.165 79.6154 50.2907 82.4458 46.9946 84.6573C43.2871 87.1452 38.3171 88.5153 33.0002 88.5153C27.6832 88.5153 22.7133 87.1452 19.0055 84.6576C15.7094 82.4458 13.8353 79.6154 13.6796 76.6489ZM57.3266 63.5228C59.7357 68.7209 61.8471 73.2799 57.7404 78.6615C57.3668 78.2151 56.9809 77.7766 56.5813 77.3475C56.6144 76.9834 56.6327 76.6171 56.6327 76.2484C56.6327 73.6619 55.7832 71.1261 54.168 68.8385C55.3872 67.0879 56.3953 65.1801 57.1545 63.1516C57.2121 63.2755 57.2695 63.3995 57.3266 63.5228ZM19.5813 9.19119C24.0408 5.81021 29.5343 4.29686 33.0002 4.29686C36.466 4.29686 41.9596 5.81021 46.4191 9.19119C50.0984 11.9807 54.4847 17.1234 54.4847 25.7812V28.3586H42.669C41.4824 28.3586 40.5205 29.3205 40.5205 30.507C40.5205 31.6936 41.4824 32.6555 42.669 32.6555H56.6331V43.3978H50.6175V41.339C50.6175 40.1524 49.6557 39.1906 48.4691 39.1906C47.2825 39.1906 46.3207 40.1524 46.3207 41.339V43.3978H40.3051V41.3388C40.3051 40.1522 39.3432 39.1904 38.1566 39.1904C36.9701 39.1904 36.0082 40.1522 36.0082 41.3388V43.3978H29.9926V41.3388C29.9926 40.1522 29.0307 39.1904 27.8442 39.1904C26.6576 39.1904 25.6957 40.1522 25.6957 41.3388V43.3978H19.6801V41.3388C19.6801 40.1522 18.7183 39.1904 17.5317 39.1904C16.3451 39.1904 15.3833 40.1522 15.3833 41.3388V43.3978H9.36982C9.36918 43.3978 9.36853 43.3978 9.36767 43.3978V32.6555H23.3333C24.5199 32.6555 25.4818 31.6936 25.4818 30.507C25.4818 29.3205 24.5199 28.3586 23.3333 28.3586H11.5161V25.7812C11.5159 17.1234 15.9019 11.9809 19.5813 9.19119ZM8.67373 63.5228C8.73088 63.3993 8.78824 63.2753 8.84561 63.1516C9.60486 65.1801 10.6129 67.0879 11.8324 68.8385C10.2172 71.1261 9.36767 73.6619 9.36767 76.2484C9.36767 76.6173 9.38615 76.9836 9.41902 77.3477C9.01963 77.7768 8.63356 78.2153 8.26016 78.6617C4.15344 73.2799 6.26491 68.7207 8.67373 63.5228ZM60.9298 105.703H52.3356V100.654C52.3356 99.4673 51.3738 98.5055 50.1872 98.5055C49.0006 98.5055 48.0387 99.4673 48.0387 100.654V105.703H17.9616V100.654C17.9616 99.4673 16.9998 98.5055 15.8132 98.5055C14.6266 98.5055 13.6647 99.4673 13.6647 100.654V105.703H5.0706V99.2564C5.0706 93.0304 7.12536 87.0907 10.9135 82.2135C12.1355 84.4661 14.0594 86.5132 16.6115 88.2255C21.0195 91.1832 26.8398 92.8121 33.0002 92.8121C39.1606 92.8121 44.9809 91.1832 49.3888 88.2257C51.9409 86.5134 53.8649 84.4664 55.0869 82.2135C58.875 87.0904 60.9298 93.0304 60.9298 99.2566V105.703Z" fill="black"/>
<path d="M33.0019 32.6558C34.1884 32.6558 35.1503 31.6939 35.1503 30.5073C35.1503 29.3207 34.1884 28.3589 33.0019 28.3589H33.0004C31.8138 28.3589 30.8528 29.3207 30.8528 30.5073C30.8528 31.6939 31.8153 32.6558 33.0019 32.6558Z" fill="black"/>
</svg>
