<svg width="500" height="64" viewBox="0 0 500 64" fill="none" xmlns="http://www.w3.org/2000/svg">
<line y1="22.5" x2="500" y2="22.5" stroke="black"/>
<circle cx="77" cy="23" r="22.5" fill="white" stroke="#2271A9"/>
<path d="M74.775 27.8375C74.9333 27.8375 75.1625 27.8417 75.4625 27.85C75.7708 27.8583 76.0167 27.8625 76.2 27.8625C76.2 27.5625 76.1958 27.2792 76.1875 27.0125C76.1792 26.7458 76.175 26.4667 76.175 26.175V20.8625C76.175 20.5458 76.1917 20.0917 76.225 19.5C76.2583 18.9083 76.2833 18.35 76.3 17.825C75.8333 18.4083 75.275 18.9333 74.625 19.4C73.975 19.8667 73.3333 20.2417 72.7 20.525C72.1 20.1917 71.7292 19.675 71.5875 18.975C72.8042 18.225 73.8042 17.4292 74.5875 16.5875C75.3708 15.7458 75.9333 14.9417 76.275 14.175C76.4917 14.125 76.7042 14.0958 76.9125 14.0875C77.1292 14.0708 77.3292 14.0625 77.5125 14.0625C77.6958 14.0625 77.8875 14.0708 78.0875 14.0875C78.2875 14.0958 78.5042 14.125 78.7375 14.175V26.175C78.7375 26.4667 78.7333 26.7458 78.725 27.0125C78.7167 27.2792 78.7125 27.5625 78.7125 27.8625C78.8958 27.8625 79.1458 27.8583 79.4625 27.85C79.7792 27.8417 80.0167 27.8375 80.175 27.8375H81.8875C81.9708 28.1875 82.0125 28.5458 82.0125 28.9125C82.0125 29.2708 81.9708 29.6333 81.8875 30H72.4875C72.4042 29.6167 72.3625 29.2542 72.3625 28.9125C72.3625 28.5458 72.4042 28.1875 72.4875 27.8375H74.775Z" fill="#2271A9"/>
<circle cx="187" cy="23" r="22.5" fill="white" stroke="#2271A9"/>
<path d="M191.988 27.7375C191.988 28.6208 191.854 29.2208 191.588 29.5375C191.329 29.8542 190.888 30.0125 190.263 30.0125H182.5C182.242 29.7375 182.004 29.4625 181.788 29.1875C181.571 28.9042 181.463 28.5875 181.463 28.2375C181.463 27.7625 181.608 27.2667 181.9 26.75C182.2 26.2333 182.588 25.7208 183.063 25.2125C183.538 24.6958 184.046 24.2042 184.588 23.7375L187.038 21.6625C187.621 21.1708 188.079 20.6792 188.413 20.1875C188.754 19.6958 188.925 19.1208 188.925 18.4625C188.925 17.7125 188.696 17.1125 188.238 16.6625C187.788 16.2125 187.208 15.9875 186.5 15.9875C185.808 15.9875 185.204 16.2208 184.688 16.6875C184.171 17.1458 183.779 17.7083 183.513 18.375C183.196 18.3583 182.85 18.2792 182.475 18.1375C182.1 17.9875 181.825 17.7708 181.65 17.4875C181.892 16.8458 182.246 16.25 182.713 15.7C183.179 15.1417 183.75 14.6958 184.425 14.3625C185.108 14.0208 185.875 13.85 186.725 13.85C188.217 13.85 189.4 14.2833 190.275 15.15C191.158 16.0083 191.6 17.1208 191.6 18.4875C191.6 19.2958 191.45 19.9958 191.15 20.5875C190.858 21.1792 190.475 21.7125 190 22.1875C189.525 22.6625 189.017 23.1292 188.475 23.5875L186.563 25.175C185.929 25.7083 185.383 26.2167 184.925 26.7C184.475 27.1833 184.2 27.5917 184.1 27.925C184.717 27.8583 185.321 27.8125 185.913 27.7875C186.513 27.7542 187.008 27.7375 187.4 27.7375H191.988Z" fill="#2271A9"/>
<circle cx="297" cy="23" r="22.5" fill="#2271A9" stroke="#2271A9"/>
<path d="M299.288 24.95C299.288 24.0667 299.033 23.3875 298.525 22.9125C298.017 22.4292 297.333 22.1875 296.475 22.1875C296.208 22.1875 295.921 22.225 295.613 22.3C295.304 22.3667 295.025 22.4667 294.775 22.6C294.533 22.475 294.313 22.2792 294.113 22.0125C293.921 21.7458 293.792 21.475 293.725 21.2L296.85 17.9375C296.983 17.8042 297.154 17.6333 297.363 17.425C297.579 17.2083 297.796 16.9958 298.013 16.7875C298.229 16.5792 298.408 16.4167 298.55 16.3L298.475 16.1875C298.183 16.2625 297.754 16.3208 297.188 16.3625C296.629 16.3958 296.096 16.4125 295.588 16.4125H292.038C291.979 16.2375 291.942 16.0667 291.925 15.9C291.908 15.725 291.9 15.5792 291.9 15.4625C291.9 15.2625 291.913 15.0542 291.938 14.8375C291.971 14.6208 292.029 14.4 292.113 14.175H300.838C301.038 14.55 301.179 14.875 301.263 15.15C301.354 15.4167 301.4 15.6375 301.4 15.8125C301.4 16.2125 301.221 16.6 300.863 16.975L298.238 19.65C297.988 19.9083 297.688 20.1708 297.338 20.4375C298.179 20.4542 298.954 20.6333 299.663 20.975C300.371 21.3167 300.938 21.825 301.363 22.5C301.788 23.175 302 24.025 302 25.05C302 26.2333 301.721 27.2167 301.163 28C300.604 28.775 299.892 29.3583 299.025 29.75C298.158 30.1333 297.258 30.325 296.325 30.325C295.258 30.325 294.296 30.1708 293.438 29.8625C292.588 29.5458 291.888 29.1542 291.338 28.6875C291.404 28.3792 291.542 28.0625 291.75 27.7375C291.967 27.4125 292.208 27.1458 292.475 26.9375C292.967 27.3042 293.5 27.6083 294.075 27.85C294.658 28.0833 295.296 28.2 295.988 28.2C296.921 28.2 297.704 27.925 298.338 27.375C298.971 26.825 299.288 26.0167 299.288 24.95Z" fill="white"/>
<circle cx="407" cy="23" r="22.5" fill="white" stroke="#2271A9"/>
<path d="M401.675 26.575C401.5 26.3083 401.358 26.0375 401.25 25.7625C401.142 25.4875 401.088 25.2292 401.088 24.9875C401.088 24.7958 401.138 24.5667 401.238 24.3C401.338 24.0333 401.454 23.7458 401.588 23.4375L405.85 14.025C406.217 13.9417 406.65 13.95 407.15 14.05C407.658 14.1417 408.033 14.2917 408.275 14.5L405.375 20.825C405.225 21.1667 405.046 21.5625 404.838 22.0125C404.638 22.4542 404.429 22.8917 404.213 23.325C403.996 23.75 403.796 24.1083 403.613 24.4L403.663 24.4875C404.146 24.4542 404.679 24.4292 405.263 24.4125C405.846 24.3958 406.267 24.3875 406.525 24.3875H407.513C407.513 24.2542 407.508 24.1083 407.5 23.95C407.5 23.7833 407.5 23.6583 407.5 23.575V21.6125C407.5 20.9875 407.65 20.5042 407.95 20.1625C408.258 19.8125 408.679 19.6375 409.213 19.6375H409.913L410.025 19.75V23.05C410.025 23.2583 410.021 23.4833 410.013 23.725C410.004 23.9667 410 24.1875 410 24.3875C410.2 24.3875 410.392 24.3833 410.575 24.375C410.758 24.3667 410.95 24.3625 411.15 24.3625H412.475C412.508 24.5375 412.529 24.7083 412.538 24.875C412.546 25.0417 412.55 25.2 412.55 25.35C412.55 25.5083 412.538 25.7 412.513 25.925C412.488 26.1417 412.442 26.35 412.375 26.55H411.15C410.95 26.55 410.758 26.55 410.575 26.55C410.392 26.5417 410.2 26.5375 410 26.5375C410 26.7375 410.004 26.9583 410.013 27.2C410.021 27.4417 410.025 27.6625 410.025 27.8625V30C409.817 30.0417 409.604 30.0667 409.388 30.075C409.179 30.0917 408.967 30.1 408.75 30.1C408.542 30.1 408.329 30.0917 408.113 30.075C407.904 30.0667 407.7 30.0417 407.5 30V27.8625C407.5 27.6625 407.504 27.4417 407.513 27.2C407.521 26.9583 407.525 26.7375 407.525 26.5375C407.325 26.5375 407.104 26.5458 406.863 26.5625C406.621 26.5708 406.396 26.575 406.188 26.575H401.675Z" fill="#2271A9"/>
<path d="M49.128 51.804C49.22 51.784 49.324 51.772 49.44 51.768C49.56 51.76 49.666 51.756 49.758 51.756C49.858 51.756 49.966 51.76 50.082 51.768C50.198 51.772 50.306 51.784 50.406 51.804V60C50.306 60.02 50.198 60.032 50.082 60.036C49.966 60.044 49.858 60.048 49.758 60.048C49.666 60.048 49.56 60.044 49.44 60.036C49.324 60.032 49.22 60.02 49.128 60V51.804ZM57.2031 58.734C57.2031 58.942 57.2171 59.14 57.2451 59.328C57.2731 59.512 57.3251 59.674 57.4011 59.814C57.3131 59.89 57.1991 59.952 57.0591 60C56.9191 60.052 56.7731 60.078 56.6211 60.078C56.3811 60.078 56.2111 60.012 56.1111 59.88C56.0151 59.748 55.9671 59.552 55.9671 59.292V56.238C55.9671 55.838 55.9151 55.546 55.8111 55.362C55.7071 55.178 55.5091 55.086 55.2171 55.086C54.9811 55.086 54.7251 55.152 54.4491 55.284C54.1731 55.416 53.9291 55.596 53.7171 55.824V60C53.5491 60.032 53.3431 60.048 53.0991 60.048C52.8551 60.048 52.6471 60.032 52.4751 60V54.102L52.5531 54.024H53.0211C53.2531 54.024 53.4211 54.09 53.5251 54.222C53.6331 54.35 53.6951 54.53 53.7111 54.762C53.9671 54.53 54.2591 54.34 54.5871 54.192C54.9151 54.044 55.2571 53.97 55.6131 53.97C55.9891 53.97 56.2931 54.058 56.5251 54.234C56.7611 54.406 56.9331 54.642 57.0411 54.942C57.1491 55.238 57.2031 55.57 57.2031 55.938V58.734ZM60.5138 60C60.3258 60.032 60.1218 60.048 59.9018 60.048C59.6858 60.048 59.4838 60.032 59.2958 60V54.96L58.2638 54.978C58.2318 54.834 58.2158 54.68 58.2158 54.516C58.2158 54.368 58.2318 54.218 58.2638 54.066L59.2478 54.078C59.2278 53.89 59.2078 53.706 59.1878 53.526C59.1718 53.342 59.1638 53.166 59.1638 52.998C59.1638 52.47 59.3258 52.026 59.6498 51.666C59.9778 51.306 60.4338 51.126 61.0178 51.126C61.2898 51.126 61.5678 51.156 61.8518 51.216C62.1358 51.276 62.3698 51.34 62.5538 51.408C62.5538 51.556 62.5278 51.71 62.4758 51.87C62.4278 52.026 62.3598 52.152 62.2718 52.248C62.1158 52.2 61.9458 52.158 61.7618 52.122C61.5818 52.086 61.4058 52.068 61.2338 52.068C60.9538 52.068 60.7358 52.154 60.5798 52.326C60.4238 52.498 60.3458 52.748 60.3458 53.076C60.3458 53.232 60.3538 53.396 60.3698 53.568C60.3858 53.736 60.4078 53.908 60.4358 54.084L62.1218 54.066C62.1538 54.218 62.1698 54.368 62.1698 54.516C62.1698 54.68 62.1538 54.834 62.1218 54.978L60.5138 54.96V60ZM67.6925 57.036C67.6925 57.652 67.5945 58.194 67.3985 58.662C67.2025 59.13 66.9125 59.496 66.5285 59.76C66.1445 60.024 65.6665 60.156 65.0945 60.156C64.5265 60.156 64.0505 60.024 63.6665 59.76C63.2825 59.492 62.9925 59.124 62.7965 58.656C62.6045 58.184 62.5085 57.644 62.5085 57.036C62.5085 56.428 62.6065 55.89 62.8025 55.422C62.9985 54.95 63.2885 54.582 63.6725 54.318C64.0565 54.054 64.5305 53.922 65.0945 53.922C65.6705 53.922 66.1505 54.056 66.5345 54.324C66.9185 54.588 67.2065 54.956 67.3985 55.428C67.5945 55.896 67.6925 56.432 67.6925 57.036ZM63.7865 57.036C63.7865 57.412 63.8245 57.766 63.9005 58.098C63.9765 58.426 64.1105 58.694 64.3025 58.902C64.4945 59.106 64.7625 59.208 65.1065 59.208C65.4465 59.208 65.7105 59.106 65.8985 58.902C66.0905 58.694 66.2245 58.426 66.3005 58.098C66.3765 57.766 66.4145 57.412 66.4145 57.036C66.4145 56.668 66.3765 56.318 66.3005 55.986C66.2245 55.654 66.0905 55.384 65.8985 55.176C65.7105 54.968 65.4465 54.864 65.1065 54.864C64.7625 54.864 64.4945 54.968 64.3025 55.176C64.1105 55.384 63.9765 55.654 63.9005 55.986C63.8245 56.318 63.7865 56.668 63.7865 57.036ZM68.8148 54.648C68.8428 54.536 68.9008 54.414 68.9888 54.282C69.0768 54.15 69.1688 54.052 69.2648 53.988C69.5528 54.052 69.7868 54.176 69.9668 54.36C70.1508 54.544 70.2848 54.776 70.3688 55.056C70.5088 54.752 70.7048 54.5 70.9568 54.3C71.2088 54.096 71.5348 53.994 71.9348 53.994C72.0428 53.994 72.1468 54 72.2468 54.012C72.3468 54.024 72.4548 54.04 72.5708 54.06C72.5708 54.228 72.5468 54.424 72.4988 54.648C72.4548 54.868 72.3788 55.062 72.2708 55.23C72.1908 55.21 72.1088 55.198 72.0248 55.194C71.9448 55.186 71.8648 55.18 71.7848 55.176C71.4608 55.176 71.1948 55.268 70.9868 55.452C70.7828 55.632 70.6188 55.844 70.4948 56.088V60C70.3268 60.032 70.1208 60.048 69.8768 60.048C69.6368 60.048 69.4308 60.032 69.2588 60V55.884C69.2588 55.564 69.2108 55.302 69.1148 55.098C69.0188 54.894 68.9188 54.744 68.8148 54.648ZM76.8208 56.244C76.8208 55.824 76.7608 55.526 76.6408 55.35C76.5208 55.174 76.3428 55.086 76.1068 55.086C75.8988 55.09 75.6768 55.16 75.4408 55.296C75.2088 55.428 74.9988 55.602 74.8108 55.818V60C74.6428 60.032 74.4368 60.048 74.1928 60.048C73.9488 60.048 73.7408 60.032 73.5688 60V54.108L73.6468 54.024H74.1088C74.3448 54.024 74.5148 54.09 74.6188 54.222C74.7268 54.354 74.7888 54.538 74.8048 54.774C75.0448 54.534 75.3108 54.34 75.6028 54.192C75.8948 54.044 76.1948 53.97 76.5028 53.97C76.8428 53.97 77.1268 54.05 77.3548 54.21C77.5828 54.37 77.7548 54.584 77.8708 54.852C78.1468 54.596 78.4468 54.386 78.7708 54.222C79.0988 54.054 79.4348 53.97 79.7788 53.97C80.3028 53.97 80.6888 54.152 80.9368 54.516C81.1888 54.88 81.3148 55.322 81.3148 55.842V58.734C81.3148 58.942 81.3288 59.14 81.3568 59.328C81.3848 59.512 81.4368 59.674 81.5128 59.814C81.4248 59.89 81.3108 59.952 81.1708 60C81.0308 60.052 80.8848 60.078 80.7328 60.078C80.4928 60.078 80.3228 60.012 80.2228 59.88C80.1268 59.748 80.0788 59.552 80.0788 59.292V56.232C80.0788 55.812 80.0168 55.516 79.8928 55.344C79.7688 55.172 79.5888 55.086 79.3528 55.086C79.1568 55.086 78.9408 55.152 78.7048 55.284C78.4728 55.416 78.2568 55.596 78.0568 55.824V55.836V60C77.8888 60.032 77.6848 60.048 77.4448 60.048C77.2008 60.048 76.9928 60.032 76.8208 60V56.244ZM82.7173 58.386C82.7173 57.93 82.8173 57.556 83.0173 57.264C83.2213 56.972 83.4953 56.756 83.8393 56.616C84.1873 56.472 84.5773 56.4 85.0093 56.4C85.1773 56.4 85.3613 56.406 85.5613 56.418C85.7653 56.426 85.9673 56.444 86.1673 56.472V56.01C86.1673 55.634 86.0813 55.364 85.9093 55.2C85.7373 55.036 85.4973 54.954 85.1893 54.954C84.8853 54.954 84.5713 55 84.2473 55.092C83.9273 55.18 83.6113 55.286 83.2993 55.41C83.1993 55.31 83.1153 55.174 83.0473 55.002C82.9793 54.826 82.9413 54.658 82.9333 54.498C83.2733 54.354 83.6713 54.226 84.1273 54.114C84.5873 54.002 85.0213 53.946 85.4293 53.946C86.0173 53.946 86.4913 54.11 86.8513 54.438C87.2113 54.766 87.3913 55.274 87.3913 55.962V58.422C87.3913 58.646 87.4113 58.844 87.4513 59.016C87.4953 59.184 87.5873 59.328 87.7273 59.448C87.6913 59.56 87.6293 59.68 87.5413 59.808C87.4533 59.932 87.3593 60.026 87.2593 60.09C87.0113 60.042 86.8093 59.95 86.6533 59.814C86.5013 59.678 86.3853 59.518 86.3053 59.334C86.0893 59.542 85.8293 59.732 85.5253 59.904C85.2213 60.072 84.8733 60.156 84.4813 60.156C84.0853 60.156 83.7553 60.068 83.4913 59.892C83.2313 59.716 83.0373 59.492 82.9093 59.22C82.7813 58.948 82.7173 58.67 82.7173 58.386ZM83.9473 58.302C83.9473 58.546 84.0173 58.754 84.1573 58.926C84.2973 59.094 84.4973 59.178 84.7573 59.178C84.9813 59.178 85.2193 59.116 85.4713 58.992C85.7233 58.868 85.9553 58.686 86.1673 58.446V57.312C85.9873 57.292 85.8033 57.278 85.6153 57.27C85.4313 57.262 85.2553 57.258 85.0873 57.258C84.7233 57.258 84.4413 57.35 84.2413 57.534C84.0453 57.718 83.9473 57.974 83.9473 58.302ZM89.3064 53.028C89.3064 52.752 89.3524 52.552 89.4444 52.428C89.5364 52.3 89.7144 52.236 89.9784 52.236H90.4464L90.5184 52.314V54.084L92.0064 54.066C92.0424 54.222 92.0604 54.372 92.0604 54.516C92.0604 54.68 92.0424 54.834 92.0064 54.978L90.5184 54.96V58.548C90.5184 58.708 90.5564 58.836 90.6324 58.932C90.7084 59.024 90.8364 59.07 91.0164 59.07H91.8384C91.9064 59.254 91.9404 59.462 91.9404 59.694C91.9404 59.742 91.9384 59.79 91.9344 59.838C91.9344 59.882 91.9284 59.924 91.9164 59.964C91.7164 59.988 91.5024 60.008 91.2744 60.024C91.0464 60.044 90.8144 60.054 90.5784 60.054C89.7304 60.054 89.3064 59.642 89.3064 58.818V54.966L88.4304 54.978C88.3944 54.834 88.3764 54.68 88.3764 54.516C88.3764 54.372 88.3944 54.222 88.4304 54.066L89.3064 54.078V53.028ZM94.7423 60C94.5703 60.032 94.3643 60.048 94.1243 60.048C93.8803 60.048 93.6723 60.032 93.5003 60V55.602C93.5003 55.39 93.4623 55.234 93.3863 55.134C93.3103 55.03 93.1743 54.978 92.9783 54.978H92.8463C92.8103 54.838 92.7923 54.694 92.7923 54.546C92.7923 54.394 92.8103 54.242 92.8463 54.09C92.9983 54.07 93.1403 54.056 93.2723 54.048C93.4083 54.04 93.5203 54.036 93.6083 54.036H93.7703C94.0703 54.036 94.3063 54.132 94.4783 54.324C94.6543 54.512 94.7423 54.772 94.7423 55.104V60ZM93.1343 52.476C93.1343 52.272 93.1703 52.094 93.2423 51.942C93.3143 51.898 93.4123 51.862 93.5363 51.834C93.6603 51.806 93.7823 51.792 93.9023 51.792C94.0143 51.792 94.1363 51.806 94.2683 51.834C94.4003 51.862 94.4983 51.898 94.5623 51.942C94.5983 52.01 94.6243 52.096 94.6403 52.2C94.6603 52.3 94.6703 52.392 94.6703 52.476C94.6703 52.676 94.6343 52.854 94.5623 53.01C94.5023 53.054 94.4043 53.09 94.2683 53.118C94.1363 53.142 94.0143 53.154 93.9023 53.154C93.7823 53.154 93.6583 53.142 93.5303 53.118C93.4063 53.09 93.3103 53.054 93.2423 53.01C93.1703 52.854 93.1343 52.676 93.1343 52.476ZM101.372 57.036C101.372 57.652 101.274 58.194 101.078 58.662C100.882 59.13 100.592 59.496 100.208 59.76C99.8242 60.024 99.3462 60.156 98.7742 60.156C98.2062 60.156 97.7302 60.024 97.3462 59.76C96.9622 59.492 96.6722 59.124 96.4762 58.656C96.2842 58.184 96.1882 57.644 96.1882 57.036C96.1882 56.428 96.2862 55.89 96.4822 55.422C96.6782 54.95 96.9682 54.582 97.3522 54.318C97.7362 54.054 98.2102 53.922 98.7742 53.922C99.3502 53.922 99.8302 54.056 100.214 54.324C100.598 54.588 100.886 54.956 101.078 55.428C101.274 55.896 101.372 56.432 101.372 57.036ZM97.4662 57.036C97.4662 57.412 97.5042 57.766 97.5802 58.098C97.6562 58.426 97.7902 58.694 97.9822 58.902C98.1742 59.106 98.4422 59.208 98.7862 59.208C99.1262 59.208 99.3902 59.106 99.5782 58.902C99.7702 58.694 99.9042 58.426 99.9802 58.098C100.056 57.766 100.094 57.412 100.094 57.036C100.094 56.668 100.056 56.318 99.9802 55.986C99.9042 55.654 99.7702 55.384 99.5782 55.176C99.3902 54.968 99.1262 54.864 98.7862 54.864C98.4422 54.864 98.1742 54.968 97.9822 55.176C97.7902 55.384 97.6562 55.654 97.5802 55.986C97.5042 56.318 97.4662 56.668 97.4662 57.036ZM107.559 58.734C107.559 58.942 107.573 59.14 107.601 59.328C107.629 59.512 107.681 59.674 107.757 59.814C107.669 59.89 107.555 59.952 107.415 60C107.275 60.052 107.129 60.078 106.977 60.078C106.737 60.078 106.567 60.012 106.467 59.88C106.371 59.748 106.323 59.552 106.323 59.292V56.238C106.323 55.838 106.271 55.546 106.167 55.362C106.063 55.178 105.865 55.086 105.573 55.086C105.337 55.086 105.081 55.152 104.805 55.284C104.529 55.416 104.285 55.596 104.073 55.824V60C103.905 60.032 103.699 60.048 103.455 60.048C103.211 60.048 103.003 60.032 102.831 60V54.102L102.909 54.024H103.377C103.609 54.024 103.777 54.09 103.881 54.222C103.989 54.35 104.051 54.53 104.067 54.762C104.323 54.53 104.615 54.34 104.943 54.192C105.271 54.044 105.613 53.97 105.969 53.97C106.345 53.97 106.649 54.058 106.881 54.234C107.117 54.406 107.289 54.642 107.397 54.942C107.505 55.238 107.559 55.57 107.559 55.938V58.734Z" fill="#9C9C9C"/>
<path d="M160.164 51.798C160.604 51.79 161.03 51.782 161.442 51.774C161.854 51.762 162.26 51.756 162.66 51.756C163.544 51.756 164.202 51.948 164.634 52.332C165.066 52.716 165.282 53.246 165.282 53.922C165.282 54.302 165.178 54.646 164.97 54.954C164.766 55.258 164.494 55.476 164.154 55.608C164.426 55.688 164.676 55.828 164.904 56.028C165.136 56.224 165.322 56.466 165.462 56.754C165.602 57.042 165.672 57.36 165.672 57.708C165.672 58.152 165.572 58.552 165.372 58.908C165.172 59.26 164.86 59.538 164.436 59.742C164.016 59.946 163.474 60.048 162.81 60.048C162.326 60.048 161.876 60.042 161.46 60.03C161.048 60.022 160.616 60.014 160.164 60.006L160.086 59.934V51.87L160.164 51.798ZM162.636 52.734C162.468 52.734 162.26 52.734 162.012 52.734C161.768 52.73 161.548 52.726 161.352 52.722V55.206H162.612C162.988 55.206 163.274 55.142 163.47 55.014C163.67 54.886 163.806 54.726 163.878 54.534C163.954 54.342 163.992 54.15 163.992 53.958C163.992 53.762 163.958 53.57 163.89 53.382C163.822 53.194 163.69 53.04 163.494 52.92C163.298 52.796 163.012 52.734 162.636 52.734ZM161.352 59.088C161.604 59.084 161.852 59.082 162.096 59.082C162.344 59.078 162.582 59.076 162.81 59.076C163.242 59.076 163.568 58.998 163.788 58.842C164.012 58.686 164.164 58.498 164.244 58.278C164.324 58.054 164.364 57.84 164.364 57.636C164.364 57.436 164.316 57.224 164.22 57C164.128 56.776 163.964 56.586 163.728 56.43C163.492 56.27 163.16 56.19 162.732 56.19H161.352V59.088ZM166.788 58.386C166.788 57.93 166.888 57.556 167.088 57.264C167.292 56.972 167.566 56.756 167.91 56.616C168.258 56.472 168.648 56.4 169.08 56.4C169.248 56.4 169.432 56.406 169.632 56.418C169.836 56.426 170.038 56.444 170.238 56.472V56.01C170.238 55.634 170.152 55.364 169.98 55.2C169.808 55.036 169.568 54.954 169.26 54.954C168.956 54.954 168.642 55 168.318 55.092C167.998 55.18 167.682 55.286 167.37 55.41C167.27 55.31 167.186 55.174 167.118 55.002C167.05 54.826 167.012 54.658 167.004 54.498C167.344 54.354 167.742 54.226 168.198 54.114C168.658 54.002 169.092 53.946 169.5 53.946C170.088 53.946 170.562 54.11 170.922 54.438C171.282 54.766 171.462 55.274 171.462 55.962V58.422C171.462 58.646 171.482 58.844 171.522 59.016C171.566 59.184 171.658 59.328 171.798 59.448C171.762 59.56 171.7 59.68 171.612 59.808C171.524 59.932 171.43 60.026 171.33 60.09C171.082 60.042 170.88 59.95 170.724 59.814C170.572 59.678 170.456 59.518 170.376 59.334C170.16 59.542 169.9 59.732 169.596 59.904C169.292 60.072 168.944 60.156 168.552 60.156C168.156 60.156 167.826 60.068 167.562 59.892C167.302 59.716 167.108 59.492 166.98 59.22C166.852 58.948 166.788 58.67 166.788 58.386ZM168.018 58.302C168.018 58.546 168.088 58.754 168.228 58.926C168.368 59.094 168.568 59.178 168.828 59.178C169.052 59.178 169.29 59.116 169.542 58.992C169.794 58.868 170.026 58.686 170.238 58.446V57.312C170.058 57.292 169.874 57.278 169.686 57.27C169.502 57.262 169.326 57.258 169.158 57.258C168.794 57.258 168.512 57.35 168.312 57.534C168.116 57.718 168.018 57.974 168.018 58.302ZM176.252 56.364C176.26 56.104 176.236 55.862 176.18 55.638C176.128 55.41 176.024 55.226 175.868 55.086C175.712 54.942 175.488 54.87 175.196 54.87C174.816 54.87 174.52 55.054 174.308 55.422C174.1 55.79 173.996 56.34 173.996 57.072C173.996 57.792 174.114 58.318 174.35 58.65C174.586 58.978 174.92 59.142 175.352 59.142C175.624 59.142 175.882 59.08 176.126 58.956C176.37 58.828 176.598 58.686 176.81 58.53C176.918 58.598 177.024 58.706 177.128 58.854C177.236 58.998 177.304 59.138 177.332 59.274C177.06 59.538 176.738 59.752 176.366 59.916C175.994 60.076 175.594 60.156 175.166 60.156C174.594 60.156 174.126 60.014 173.762 59.73C173.402 59.446 173.136 59.07 172.964 58.602C172.796 58.134 172.712 57.624 172.712 57.072C172.712 56.332 172.832 55.73 173.072 55.266C173.316 54.802 173.63 54.462 174.014 54.246C174.398 54.03 174.802 53.922 175.226 53.922C175.714 53.922 176.118 54.016 176.438 54.204C176.758 54.388 176.998 54.62 177.158 54.9C177.318 55.176 177.398 55.452 177.398 55.728C177.398 55.94 177.348 56.108 177.248 56.232C177.148 56.356 176.988 56.418 176.768 56.418C176.596 56.418 176.424 56.4 176.252 56.364ZM179.98 60C179.812 60.032 179.61 60.048 179.374 60.048C179.142 60.048 178.94 60.032 178.768 60V51.252L178.846 51.174H179.314C179.574 51.174 179.75 51.238 179.842 51.366C179.934 51.49 179.98 51.69 179.98 51.966V56.406L180.382 56.394C180.506 56.394 180.604 56.334 180.676 56.214L181.726 54.558C181.826 54.39 181.934 54.262 182.05 54.174C182.166 54.082 182.328 54.036 182.536 54.036C182.768 54.036 182.988 54.042 183.196 54.054L183.268 54.15L181.96 56.226C181.848 56.414 181.716 56.566 181.564 56.682C182.056 56.81 182.424 57.17 182.668 57.762L183.076 58.758C183.26 59.242 183.452 59.556 183.652 59.7C183.564 59.804 183.442 59.894 183.286 59.97C183.134 60.042 182.98 60.078 182.824 60.078C182.6 60.078 182.434 60.02 182.326 59.904C182.222 59.788 182.126 59.614 182.038 59.382L181.552 58.206C181.428 57.898 181.296 57.69 181.156 57.582C181.016 57.47 180.808 57.414 180.532 57.414C180.444 57.414 180.354 57.418 180.262 57.426C180.174 57.43 180.08 57.436 179.98 57.444V60ZM184.231 57.048C184.231 56.34 184.343 55.756 184.567 55.296C184.795 54.832 185.083 54.488 185.431 54.264C185.783 54.036 186.147 53.922 186.523 53.922C186.899 53.922 187.219 53.982 187.483 54.102C187.751 54.218 187.981 54.362 188.173 54.534C188.257 54.398 188.365 54.284 188.497 54.192C188.633 54.096 188.797 54.028 188.989 53.988C189.089 54.048 189.185 54.142 189.277 54.27C189.369 54.398 189.429 54.518 189.457 54.63C189.325 54.746 189.235 54.906 189.187 55.11C189.143 55.314 189.121 55.532 189.121 55.764V59.316C189.121 60.008 189.073 60.544 188.977 60.924C188.881 61.304 188.739 61.612 188.551 61.848C188.355 62.088 188.087 62.28 187.747 62.424C187.411 62.572 187.017 62.646 186.565 62.646C186.193 62.646 185.821 62.606 185.449 62.526C185.081 62.45 184.759 62.354 184.483 62.238C184.487 62.086 184.519 61.92 184.579 61.74C184.639 61.56 184.715 61.416 184.807 61.308C185.059 61.428 185.335 61.52 185.635 61.584C185.939 61.652 186.209 61.686 186.445 61.686C186.853 61.686 187.163 61.61 187.375 61.458C187.587 61.306 187.731 61.104 187.807 60.852C187.883 60.6 187.921 60.322 187.921 60.018V59.442C187.721 59.626 187.485 59.782 187.213 59.91C186.941 60.038 186.643 60.102 186.319 60.102C185.623 60.102 185.101 59.822 184.753 59.262C184.405 58.698 184.231 57.96 184.231 57.048ZM185.497 57.054C185.497 57.77 185.601 58.286 185.809 58.602C186.021 58.914 186.275 59.07 186.571 59.07C186.819 59.07 187.061 59.006 187.297 58.878C187.537 58.746 187.745 58.572 187.921 58.356V55.572C187.921 55.532 187.921 55.492 187.921 55.452C187.737 55.284 187.541 55.152 187.333 55.056C187.125 54.96 186.921 54.912 186.721 54.912C186.369 54.912 186.077 55.088 185.845 55.44C185.613 55.788 185.497 56.326 185.497 57.054ZM190.643 54.648C190.671 54.536 190.729 54.414 190.817 54.282C190.905 54.15 190.997 54.052 191.093 53.988C191.381 54.052 191.615 54.176 191.795 54.36C191.979 54.544 192.113 54.776 192.197 55.056C192.337 54.752 192.533 54.5 192.785 54.3C193.037 54.096 193.363 53.994 193.763 53.994C193.871 53.994 193.975 54 194.075 54.012C194.175 54.024 194.283 54.04 194.399 54.06C194.399 54.228 194.375 54.424 194.327 54.648C194.283 54.868 194.207 55.062 194.099 55.23C194.019 55.21 193.937 55.198 193.853 55.194C193.773 55.186 193.693 55.18 193.613 55.176C193.289 55.176 193.023 55.268 192.815 55.452C192.611 55.632 192.447 55.844 192.323 56.088V60C192.155 60.032 191.949 60.048 191.705 60.048C191.465 60.048 191.259 60.032 191.087 60V55.884C191.087 55.564 191.039 55.302 190.943 55.098C190.847 54.894 190.747 54.744 190.643 54.648ZM199.95 57.036C199.95 57.652 199.852 58.194 199.656 58.662C199.46 59.13 199.17 59.496 198.786 59.76C198.402 60.024 197.924 60.156 197.352 60.156C196.784 60.156 196.308 60.024 195.924 59.76C195.54 59.492 195.25 59.124 195.054 58.656C194.862 58.184 194.766 57.644 194.766 57.036C194.766 56.428 194.864 55.89 195.06 55.422C195.256 54.95 195.546 54.582 195.93 54.318C196.314 54.054 196.788 53.922 197.352 53.922C197.928 53.922 198.408 54.056 198.792 54.324C199.176 54.588 199.464 54.956 199.656 55.428C199.852 55.896 199.95 56.432 199.95 57.036ZM196.044 57.036C196.044 57.412 196.082 57.766 196.158 58.098C196.234 58.426 196.368 58.694 196.56 58.902C196.752 59.106 197.02 59.208 197.364 59.208C197.704 59.208 197.968 59.106 198.156 58.902C198.348 58.694 198.482 58.426 198.558 58.098C198.634 57.766 198.672 57.412 198.672 57.036C198.672 56.668 198.634 56.318 198.558 55.986C198.482 55.654 198.348 55.384 198.156 55.176C197.968 54.968 197.704 54.864 197.364 54.864C197.02 54.864 196.752 54.968 196.56 55.176C196.368 55.384 196.234 55.654 196.158 55.986C196.082 56.318 196.044 56.668 196.044 57.036ZM201.355 55.344C201.355 55.136 201.341 54.94 201.313 54.756C201.285 54.568 201.233 54.404 201.157 54.264C201.249 54.184 201.365 54.12 201.505 54.072C201.645 54.02 201.789 53.994 201.937 53.994C202.181 53.994 202.351 54.062 202.447 54.198C202.547 54.33 202.597 54.526 202.597 54.786V57.84C202.597 58.24 202.647 58.532 202.747 58.716C202.851 58.9 203.049 58.992 203.341 58.992C203.577 58.992 203.833 58.926 204.109 58.794C204.385 58.662 204.631 58.48 204.847 58.248V54.078C205.015 54.046 205.219 54.03 205.459 54.03C205.703 54.03 205.911 54.046 206.083 54.078V58.32C206.083 58.552 206.107 58.772 206.155 58.98C206.203 59.184 206.291 59.344 206.419 59.46C206.387 59.572 206.327 59.69 206.239 59.814C206.151 59.934 206.057 60.026 205.957 60.09C205.693 60.038 205.479 59.934 205.315 59.778C205.155 59.622 205.035 59.434 204.955 59.214C204.695 59.47 204.391 59.684 204.043 59.856C203.695 60.024 203.329 60.108 202.945 60.108C202.573 60.108 202.269 60.022 202.033 59.85C201.801 59.674 201.629 59.438 201.517 59.142C201.409 58.842 201.355 58.508 201.355 58.14V55.344ZM212.699 58.734C212.699 58.942 212.713 59.14 212.741 59.328C212.769 59.512 212.821 59.674 212.897 59.814C212.809 59.89 212.695 59.952 212.555 60C212.415 60.052 212.269 60.078 212.117 60.078C211.877 60.078 211.707 60.012 211.607 59.88C211.511 59.748 211.463 59.552 211.463 59.292V56.238C211.463 55.838 211.411 55.546 211.307 55.362C211.203 55.178 211.005 55.086 210.713 55.086C210.477 55.086 210.221 55.152 209.945 55.284C209.669 55.416 209.425 55.596 209.213 55.824V60C209.045 60.032 208.839 60.048 208.595 60.048C208.351 60.048 208.143 60.032 207.971 60V54.102L208.049 54.024H208.517C208.749 54.024 208.917 54.09 209.021 54.222C209.129 54.35 209.191 54.53 209.207 54.762C209.463 54.53 209.755 54.34 210.083 54.192C210.411 54.044 210.753 53.97 211.109 53.97C211.485 53.97 211.789 54.058 212.021 54.234C212.257 54.406 212.429 54.642 212.537 54.942C212.645 55.238 212.699 55.57 212.699 55.938V58.734ZM214.114 57.108C214.114 56.396 214.226 55.808 214.45 55.344C214.674 54.88 214.962 54.536 215.314 54.312C215.666 54.084 216.034 53.97 216.418 53.97C216.67 53.97 216.908 54.008 217.132 54.084C217.356 54.156 217.57 54.25 217.774 54.366V51.252L217.852 51.174H218.32C218.58 51.174 218.756 51.238 218.848 51.366C218.944 51.49 218.992 51.69 218.992 51.966V58.314C218.992 58.546 219.014 58.764 219.058 58.968C219.106 59.172 219.196 59.332 219.328 59.448C219.296 59.56 219.234 59.68 219.142 59.808C219.054 59.932 218.96 60.026 218.86 60.09C218.62 60.042 218.424 59.952 218.272 59.82C218.12 59.688 218.004 59.528 217.924 59.34C217.72 59.572 217.468 59.766 217.168 59.922C216.872 60.078 216.542 60.156 216.178 60.156C215.722 60.156 215.34 60.028 215.032 59.772C214.728 59.512 214.498 59.154 214.342 58.698C214.19 58.238 214.114 57.708 214.114 57.108ZM215.38 57.114C215.38 57.83 215.488 58.344 215.704 58.656C215.92 58.968 216.174 59.124 216.466 59.124C216.678 59.124 216.902 59.062 217.138 58.938C217.378 58.814 217.59 58.622 217.774 58.362V55.398C217.594 55.278 217.402 55.176 217.198 55.092C216.998 55.008 216.794 54.966 216.586 54.966C216.25 54.966 215.964 55.142 215.728 55.494C215.496 55.842 215.38 56.382 215.38 57.114Z" fill="#9C9C9C"/>
<path d="M276.222 58.926C276.222 59.314 276.162 59.592 276.042 59.76C275.922 59.928 275.702 60.012 275.382 60.012H271.812C271.588 60.012 271.41 59.942 271.278 59.802C271.15 59.662 271.086 59.47 271.086 59.226V51.882L271.158 51.804H275.988C276.008 51.9 276.02 51.992 276.024 52.08C276.028 52.164 276.03 52.242 276.03 52.314C276.03 52.386 276.022 52.476 276.006 52.584C275.99 52.688 275.964 52.788 275.928 52.884H273.084C272.996 52.884 272.882 52.884 272.742 52.884C272.606 52.884 272.468 52.882 272.328 52.878C272.328 53.038 272.33 53.17 272.334 53.274C272.338 53.378 272.34 53.51 272.34 53.67V55.338C272.48 55.338 272.616 55.338 272.748 55.338C272.884 55.334 272.996 55.332 273.084 55.332H275.34C275.36 55.416 275.376 55.508 275.388 55.608C275.4 55.708 275.406 55.792 275.406 55.86C275.406 55.932 275.4 56.018 275.388 56.118C275.376 56.214 275.36 56.306 275.34 56.394H273.084C272.996 56.394 272.884 56.394 272.748 56.394C272.616 56.39 272.48 56.386 272.34 56.382V58.344C272.34 58.452 272.338 58.552 272.334 58.644C272.33 58.736 272.328 58.838 272.328 58.95C272.444 58.942 272.566 58.936 272.694 58.932C272.822 58.928 272.964 58.926 273.12 58.926H276.222ZM277.127 54.258C277.399 54.066 277.683 53.97 277.979 53.97C278.131 53.97 278.253 54.004 278.345 54.072C278.437 54.136 278.523 54.23 278.603 54.354L279.629 55.926L280.763 54.078C280.899 54.038 281.069 54.018 281.273 54.018C281.393 54.018 281.505 54.028 281.609 54.048C281.713 54.064 281.805 54.086 281.885 54.114L281.921 54.21L280.229 56.85L282.161 59.808C282.041 59.884 281.903 59.95 281.747 60.006C281.595 60.062 281.447 60.09 281.303 60.09C281.151 60.09 281.027 60.06 280.931 60C280.835 59.936 280.747 59.842 280.667 59.718L279.473 57.876L278.165 60.006C278.109 60.026 278.031 60.04 277.931 60.048C277.831 60.06 277.737 60.066 277.649 60.066C277.393 60.066 277.183 60.03 277.019 59.958L276.971 59.868L278.861 56.934L277.127 54.258ZM283.72 54.024C284.12 54.024 284.364 54.226 284.452 54.63C284.652 54.426 284.892 54.258 285.172 54.126C285.456 53.99 285.764 53.922 286.096 53.922C286.552 53.922 286.932 54.05 287.236 54.306C287.544 54.562 287.774 54.92 287.926 55.38C288.082 55.836 288.16 56.364 288.16 56.964C288.16 57.68 288.048 58.27 287.824 58.734C287.6 59.198 287.312 59.542 286.96 59.766C286.608 59.99 286.24 60.102 285.856 60.102C285.6 60.102 285.358 60.066 285.13 59.994C284.906 59.918 284.69 59.822 284.482 59.706V61.794C284.482 62.07 284.434 62.27 284.338 62.394C284.246 62.522 284.07 62.586 283.81 62.586H283.342L283.264 62.508V54.102L283.342 54.024H283.72ZM285.808 54.954C285.592 54.954 285.364 55.018 285.124 55.146C284.884 55.27 284.67 55.468 284.482 55.74V58.668C284.666 58.788 284.86 58.892 285.064 58.98C285.268 59.068 285.476 59.112 285.688 59.112C286.024 59.112 286.308 58.938 286.54 58.59C286.776 58.238 286.894 57.696 286.894 56.964C286.894 56.248 286.786 55.734 286.57 55.422C286.354 55.11 286.1 54.954 285.808 54.954ZM293.941 59.478C293.653 59.682 293.311 59.846 292.915 59.97C292.519 60.094 292.113 60.156 291.697 60.156C291.221 60.156 290.823 60.072 290.503 59.904C290.183 59.732 289.929 59.502 289.741 59.214C289.553 58.922 289.419 58.59 289.339 58.218C289.259 57.842 289.219 57.452 289.219 57.048C289.219 56.452 289.311 55.918 289.495 55.446C289.683 54.974 289.961 54.602 290.329 54.33C290.701 54.058 291.165 53.922 291.721 53.922C292.241 53.922 292.677 54.036 293.029 54.264C293.385 54.492 293.653 54.8 293.833 55.188C294.013 55.572 294.103 56.002 294.103 56.478C294.103 56.67 294.095 56.836 294.079 56.976C294.067 57.112 294.045 57.262 294.013 57.426H290.503C290.527 57.926 290.637 58.338 290.833 58.662C291.029 58.986 291.379 59.148 291.883 59.148C292.183 59.148 292.473 59.104 292.753 59.016C293.033 58.928 293.301 58.82 293.557 58.692C293.657 58.788 293.741 58.912 293.809 59.064C293.881 59.216 293.925 59.354 293.941 59.478ZM291.721 54.834C291.337 54.834 291.043 54.984 290.839 55.284C290.639 55.584 290.527 56 290.503 56.532H292.915V56.376C292.915 55.956 292.823 55.594 292.639 55.29C292.455 54.986 292.149 54.834 291.721 54.834ZM295.303 54.648C295.331 54.536 295.389 54.414 295.477 54.282C295.565 54.15 295.657 54.052 295.753 53.988C296.041 54.052 296.275 54.176 296.455 54.36C296.639 54.544 296.773 54.776 296.857 55.056C296.997 54.752 297.193 54.5 297.445 54.3C297.697 54.096 298.023 53.994 298.423 53.994C298.531 53.994 298.635 54 298.735 54.012C298.835 54.024 298.943 54.04 299.059 54.06C299.059 54.228 299.035 54.424 298.987 54.648C298.943 54.868 298.867 55.062 298.759 55.23C298.679 55.21 298.597 55.198 298.513 55.194C298.433 55.186 298.353 55.18 298.273 55.176C297.949 55.176 297.683 55.268 297.475 55.452C297.271 55.632 297.107 55.844 296.983 56.088V60C296.815 60.032 296.609 60.048 296.365 60.048C296.125 60.048 295.919 60.032 295.747 60V55.884C295.747 55.564 295.699 55.302 295.603 55.098C295.507 54.894 295.407 54.744 295.303 54.648ZM301.66 60C301.488 60.032 301.282 60.048 301.042 60.048C300.798 60.048 300.59 60.032 300.418 60V55.602C300.418 55.39 300.38 55.234 300.304 55.134C300.228 55.03 300.092 54.978 299.896 54.978H299.764C299.728 54.838 299.71 54.694 299.71 54.546C299.71 54.394 299.728 54.242 299.764 54.09C299.916 54.07 300.058 54.056 300.19 54.048C300.326 54.04 300.438 54.036 300.526 54.036H300.688C300.988 54.036 301.224 54.132 301.396 54.324C301.572 54.512 301.66 54.772 301.66 55.104V60ZM300.052 52.476C300.052 52.272 300.088 52.094 300.16 51.942C300.232 51.898 300.33 51.862 300.454 51.834C300.578 51.806 300.7 51.792 300.82 51.792C300.932 51.792 301.054 51.806 301.186 51.834C301.318 51.862 301.416 51.898 301.48 51.942C301.516 52.01 301.542 52.096 301.558 52.2C301.578 52.3 301.588 52.392 301.588 52.476C301.588 52.676 301.552 52.854 301.48 53.01C301.42 53.054 301.322 53.09 301.186 53.118C301.054 53.142 300.932 53.154 300.82 53.154C300.7 53.154 300.576 53.142 300.448 53.118C300.324 53.09 300.228 53.054 300.16 53.01C300.088 52.854 300.052 52.676 300.052 52.476ZM307.828 59.478C307.54 59.682 307.198 59.846 306.802 59.97C306.406 60.094 306 60.156 305.584 60.156C305.108 60.156 304.71 60.072 304.39 59.904C304.07 59.732 303.816 59.502 303.628 59.214C303.44 58.922 303.306 58.59 303.226 58.218C303.146 57.842 303.106 57.452 303.106 57.048C303.106 56.452 303.198 55.918 303.382 55.446C303.57 54.974 303.848 54.602 304.216 54.33C304.588 54.058 305.052 53.922 305.608 53.922C306.128 53.922 306.564 54.036 306.916 54.264C307.272 54.492 307.54 54.8 307.72 55.188C307.9 55.572 307.99 56.002 307.99 56.478C307.99 56.67 307.982 56.836 307.966 56.976C307.954 57.112 307.932 57.262 307.9 57.426H304.39C304.414 57.926 304.524 58.338 304.72 58.662C304.916 58.986 305.266 59.148 305.77 59.148C306.07 59.148 306.36 59.104 306.64 59.016C306.92 58.928 307.188 58.82 307.444 58.692C307.544 58.788 307.628 58.912 307.696 59.064C307.768 59.216 307.812 59.354 307.828 59.478ZM305.608 54.834C305.224 54.834 304.93 54.984 304.726 55.284C304.526 55.584 304.414 56 304.39 56.532H306.802V56.376C306.802 55.956 306.71 55.594 306.526 55.29C306.342 54.986 306.036 54.834 305.608 54.834ZM314.254 58.734C314.254 58.942 314.268 59.14 314.296 59.328C314.324 59.512 314.376 59.674 314.452 59.814C314.364 59.89 314.25 59.952 314.11 60C313.97 60.052 313.824 60.078 313.672 60.078C313.432 60.078 313.262 60.012 313.162 59.88C313.066 59.748 313.018 59.552 313.018 59.292V56.238C313.018 55.838 312.966 55.546 312.862 55.362C312.758 55.178 312.56 55.086 312.268 55.086C312.032 55.086 311.776 55.152 311.5 55.284C311.224 55.416 310.98 55.596 310.768 55.824V60C310.6 60.032 310.394 60.048 310.15 60.048C309.906 60.048 309.698 60.032 309.526 60V54.102L309.604 54.024H310.072C310.304 54.024 310.472 54.09 310.576 54.222C310.684 54.35 310.746 54.53 310.762 54.762C311.018 54.53 311.31 54.34 311.638 54.192C311.966 54.044 312.308 53.97 312.664 53.97C313.04 53.97 313.344 54.058 313.576 54.234C313.812 54.406 313.984 54.642 314.092 54.942C314.2 55.238 314.254 55.57 314.254 55.938V58.734ZM319.209 56.364C319.217 56.104 319.193 55.862 319.137 55.638C319.085 55.41 318.981 55.226 318.825 55.086C318.669 54.942 318.445 54.87 318.153 54.87C317.773 54.87 317.477 55.054 317.265 55.422C317.057 55.79 316.953 56.34 316.953 57.072C316.953 57.792 317.071 58.318 317.307 58.65C317.543 58.978 317.877 59.142 318.309 59.142C318.581 59.142 318.839 59.08 319.083 58.956C319.327 58.828 319.555 58.686 319.767 58.53C319.875 58.598 319.981 58.706 320.085 58.854C320.193 58.998 320.261 59.138 320.289 59.274C320.017 59.538 319.695 59.752 319.323 59.916C318.951 60.076 318.551 60.156 318.123 60.156C317.551 60.156 317.083 60.014 316.719 59.73C316.359 59.446 316.093 59.07 315.921 58.602C315.753 58.134 315.669 57.624 315.669 57.072C315.669 56.332 315.789 55.73 316.029 55.266C316.273 54.802 316.587 54.462 316.971 54.246C317.355 54.03 317.759 53.922 318.183 53.922C318.671 53.922 319.075 54.016 319.395 54.204C319.715 54.388 319.955 54.62 320.115 54.9C320.275 55.176 320.355 55.452 320.355 55.728C320.355 55.94 320.305 56.108 320.205 56.232C320.105 56.356 319.945 56.418 319.725 56.418C319.553 56.418 319.381 56.4 319.209 56.364ZM325.969 59.478C325.681 59.682 325.339 59.846 324.943 59.97C324.547 60.094 324.141 60.156 323.725 60.156C323.249 60.156 322.851 60.072 322.531 59.904C322.211 59.732 321.957 59.502 321.769 59.214C321.581 58.922 321.447 58.59 321.367 58.218C321.287 57.842 321.247 57.452 321.247 57.048C321.247 56.452 321.339 55.918 321.523 55.446C321.711 54.974 321.989 54.602 322.357 54.33C322.729 54.058 323.193 53.922 323.749 53.922C324.269 53.922 324.705 54.036 325.057 54.264C325.413 54.492 325.681 54.8 325.861 55.188C326.041 55.572 326.131 56.002 326.131 56.478C326.131 56.67 326.123 56.836 326.107 56.976C326.095 57.112 326.073 57.262 326.041 57.426H322.531C322.555 57.926 322.665 58.338 322.861 58.662C323.057 58.986 323.407 59.148 323.911 59.148C324.211 59.148 324.501 59.104 324.781 59.016C325.061 58.928 325.329 58.82 325.585 58.692C325.685 58.788 325.769 58.912 325.837 59.064C325.909 59.216 325.953 59.354 325.969 59.478ZM323.749 54.834C323.365 54.834 323.071 54.984 322.867 55.284C322.667 55.584 322.555 56 322.531 56.532H324.943V56.376C324.943 55.956 324.851 55.594 324.667 55.29C324.483 54.986 324.177 54.834 323.749 54.834Z" fill="black"/>
<path d="M391.814 58.902C391.814 59.33 391.746 59.622 391.61 59.778C391.478 59.934 391.26 60.012 390.956 60.012H387.824C387.608 60.012 387.43 59.944 387.29 59.808C387.154 59.672 387.086 59.476 387.086 59.22V51.828L387.158 51.75H387.644C387.908 51.75 388.094 51.816 388.202 51.948C388.31 52.08 388.364 52.288 388.364 52.572V58.938C388.732 58.914 389.086 58.902 389.426 58.902H391.814ZM397.665 57.036C397.665 57.652 397.567 58.194 397.371 58.662C397.175 59.13 396.885 59.496 396.501 59.76C396.117 60.024 395.639 60.156 395.067 60.156C394.499 60.156 394.023 60.024 393.639 59.76C393.255 59.492 392.965 59.124 392.769 58.656C392.577 58.184 392.481 57.644 392.481 57.036C392.481 56.428 392.579 55.89 392.775 55.422C392.971 54.95 393.261 54.582 393.645 54.318C394.029 54.054 394.503 53.922 395.067 53.922C395.643 53.922 396.123 54.056 396.507 54.324C396.891 54.588 397.179 54.956 397.371 55.428C397.567 55.896 397.665 56.432 397.665 57.036ZM393.759 57.036C393.759 57.412 393.797 57.766 393.873 58.098C393.949 58.426 394.083 58.694 394.275 58.902C394.467 59.106 394.735 59.208 395.079 59.208C395.419 59.208 395.683 59.106 395.871 58.902C396.063 58.694 396.197 58.426 396.273 58.098C396.349 57.766 396.387 57.412 396.387 57.036C396.387 56.668 396.349 56.318 396.273 55.986C396.197 55.654 396.063 55.384 395.871 55.176C395.683 54.968 395.419 54.864 395.079 54.864C394.735 54.864 394.467 54.968 394.275 55.176C394.083 55.384 393.949 55.654 393.873 55.986C393.797 56.318 393.759 56.668 393.759 57.036ZM402.256 56.364C402.264 56.104 402.24 55.862 402.184 55.638C402.132 55.41 402.028 55.226 401.872 55.086C401.716 54.942 401.492 54.87 401.2 54.87C400.82 54.87 400.524 55.054 400.312 55.422C400.104 55.79 400 56.34 400 57.072C400 57.792 400.118 58.318 400.354 58.65C400.59 58.978 400.924 59.142 401.355 59.142C401.628 59.142 401.886 59.08 402.13 58.956C402.374 58.828 402.602 58.686 402.814 58.53C402.922 58.598 403.028 58.706 403.132 58.854C403.24 58.998 403.308 59.138 403.336 59.274C403.064 59.538 402.742 59.752 402.37 59.916C401.998 60.076 401.598 60.156 401.17 60.156C400.598 60.156 400.13 60.014 399.766 59.73C399.406 59.446 399.14 59.07 398.968 58.602C398.8 58.134 398.716 57.624 398.716 57.072C398.716 56.332 398.836 55.73 399.076 55.266C399.32 54.802 399.634 54.462 400.018 54.246C400.402 54.03 400.806 53.922 401.23 53.922C401.718 53.922 402.122 54.016 402.442 54.204C402.762 54.388 403.002 54.62 403.162 54.9C403.322 55.176 403.402 55.452 403.402 55.728C403.402 55.94 403.352 56.108 403.252 56.232C403.152 56.356 402.992 56.418 402.772 56.418C402.6 56.418 402.428 56.4 402.256 56.364ZM404.358 58.386C404.358 57.93 404.458 57.556 404.658 57.264C404.862 56.972 405.136 56.756 405.48 56.616C405.828 56.472 406.218 56.4 406.65 56.4C406.818 56.4 407.002 56.406 407.202 56.418C407.406 56.426 407.608 56.444 407.808 56.472V56.01C407.808 55.634 407.722 55.364 407.55 55.2C407.378 55.036 407.138 54.954 406.83 54.954C406.526 54.954 406.212 55 405.888 55.092C405.568 55.18 405.252 55.286 404.94 55.41C404.84 55.31 404.756 55.174 404.688 55.002C404.62 54.826 404.582 54.658 404.574 54.498C404.914 54.354 405.312 54.226 405.768 54.114C406.228 54.002 406.662 53.946 407.07 53.946C407.658 53.946 408.132 54.11 408.492 54.438C408.852 54.766 409.032 55.274 409.032 55.962V58.422C409.032 58.646 409.052 58.844 409.092 59.016C409.136 59.184 409.228 59.328 409.368 59.448C409.332 59.56 409.27 59.68 409.182 59.808C409.094 59.932 409 60.026 408.9 60.09C408.652 60.042 408.45 59.95 408.294 59.814C408.142 59.678 408.026 59.518 407.946 59.334C407.73 59.542 407.47 59.732 407.166 59.904C406.862 60.072 406.514 60.156 406.122 60.156C405.726 60.156 405.396 60.068 405.132 59.892C404.872 59.716 404.678 59.492 404.55 59.22C404.422 58.948 404.358 58.67 404.358 58.386ZM405.588 58.302C405.588 58.546 405.658 58.754 405.798 58.926C405.938 59.094 406.138 59.178 406.398 59.178C406.622 59.178 406.86 59.116 407.112 58.992C407.364 58.868 407.596 58.686 407.808 58.446V57.312C407.628 57.292 407.444 57.278 407.256 57.27C407.072 57.262 406.896 57.258 406.728 57.258C406.364 57.258 406.082 57.35 405.882 57.534C405.686 57.718 405.588 57.974 405.588 58.302ZM410.947 53.028C410.947 52.752 410.993 52.552 411.085 52.428C411.177 52.3 411.355 52.236 411.619 52.236H412.087L412.159 52.314V54.084L413.647 54.066C413.683 54.222 413.701 54.372 413.701 54.516C413.701 54.68 413.683 54.834 413.647 54.978L412.159 54.96V58.548C412.159 58.708 412.197 58.836 412.273 58.932C412.349 59.024 412.477 59.07 412.657 59.07H413.479C413.547 59.254 413.581 59.462 413.581 59.694C413.581 59.742 413.579 59.79 413.575 59.838C413.575 59.882 413.569 59.924 413.557 59.964C413.357 59.988 413.143 60.008 412.915 60.024C412.687 60.044 412.455 60.054 412.219 60.054C411.371 60.054 410.947 59.642 410.947 58.818V54.966L410.071 54.978C410.035 54.834 410.017 54.68 410.017 54.516C410.017 54.372 410.035 54.222 410.071 54.066L410.947 54.078V53.028ZM416.383 60C416.211 60.032 416.005 60.048 415.765 60.048C415.521 60.048 415.313 60.032 415.141 60V55.602C415.141 55.39 415.103 55.234 415.027 55.134C414.951 55.03 414.815 54.978 414.619 54.978H414.487C414.451 54.838 414.433 54.694 414.433 54.546C414.433 54.394 414.451 54.242 414.487 54.09C414.639 54.07 414.781 54.056 414.913 54.048C415.049 54.04 415.161 54.036 415.249 54.036H415.411C415.711 54.036 415.947 54.132 416.119 54.324C416.295 54.512 416.383 54.772 416.383 55.104V60ZM414.775 52.476C414.775 52.272 414.811 52.094 414.883 51.942C414.955 51.898 415.053 51.862 415.177 51.834C415.301 51.806 415.423 51.792 415.543 51.792C415.655 51.792 415.777 51.806 415.909 51.834C416.041 51.862 416.139 51.898 416.203 51.942C416.239 52.01 416.265 52.096 416.281 52.2C416.301 52.3 416.311 52.392 416.311 52.476C416.311 52.676 416.275 52.854 416.203 53.01C416.143 53.054 416.045 53.09 415.909 53.118C415.777 53.142 415.655 53.154 415.543 53.154C415.423 53.154 415.299 53.142 415.171 53.118C415.047 53.09 414.951 53.054 414.883 53.01C414.811 52.854 414.775 52.676 414.775 52.476ZM423.013 57.036C423.013 57.652 422.915 58.194 422.719 58.662C422.523 59.13 422.233 59.496 421.849 59.76C421.465 60.024 420.987 60.156 420.415 60.156C419.847 60.156 419.371 60.024 418.987 59.76C418.603 59.492 418.313 59.124 418.117 58.656C417.925 58.184 417.829 57.644 417.829 57.036C417.829 56.428 417.927 55.89 418.123 55.422C418.319 54.95 418.609 54.582 418.993 54.318C419.377 54.054 419.851 53.922 420.415 53.922C420.991 53.922 421.471 54.056 421.855 54.324C422.239 54.588 422.527 54.956 422.719 55.428C422.915 55.896 423.013 56.432 423.013 57.036ZM419.107 57.036C419.107 57.412 419.145 57.766 419.221 58.098C419.297 58.426 419.431 58.694 419.623 58.902C419.815 59.106 420.083 59.208 420.427 59.208C420.767 59.208 421.031 59.106 421.219 58.902C421.411 58.694 421.545 58.426 421.621 58.098C421.697 57.766 421.735 57.412 421.735 57.036C421.735 56.668 421.697 56.318 421.621 55.986C421.545 55.654 421.411 55.384 421.219 55.176C421.031 54.968 420.767 54.864 420.427 54.864C420.083 54.864 419.815 54.968 419.623 55.176C419.431 55.384 419.297 55.654 419.221 55.986C419.145 56.318 419.107 56.668 419.107 57.036ZM429.199 58.734C429.199 58.942 429.213 59.14 429.241 59.328C429.269 59.512 429.321 59.674 429.397 59.814C429.309 59.89 429.195 59.952 429.055 60C428.915 60.052 428.769 60.078 428.617 60.078C428.377 60.078 428.207 60.012 428.107 59.88C428.011 59.748 427.963 59.552 427.963 59.292V56.238C427.963 55.838 427.911 55.546 427.807 55.362C427.703 55.178 427.505 55.086 427.213 55.086C426.977 55.086 426.721 55.152 426.445 55.284C426.169 55.416 425.925 55.596 425.713 55.824V60C425.545 60.032 425.339 60.048 425.095 60.048C424.851 60.048 424.643 60.032 424.471 60V54.102L424.549 54.024H425.017C425.249 54.024 425.417 54.09 425.521 54.222C425.629 54.35 425.691 54.53 425.707 54.762C425.963 54.53 426.255 54.34 426.583 54.192C426.911 54.044 427.253 53.97 427.609 53.97C427.985 53.97 428.289 54.058 428.521 54.234C428.757 54.406 428.929 54.642 429.037 54.942C429.145 55.238 429.199 55.57 429.199 55.938V58.734Z" fill="#9C9C9C"/>
</svg>
